<?xml version="1.0" encoding="UTF-8" standalone="no"?><!DOCTYPE svg PUBLIC "-//W3C//DTD SVG 1.1//EN" "http://www.w3.org/Graphics/SVG/1.1/DTD/svg11.dtd"><svg width="100%" height="100%" viewBox="0 0 7682 9429" version="1.1" xmlns="http://www.w3.org/2000/svg" xmlns:xlink="http://www.w3.org/1999/xlink" xml:space="preserve" xmlns:serif="http://www.serif.com/" style="fill-rule:evenodd;clip-rule:evenodd;stroke-linejoin:round;stroke-miterlimit:2;"><g id="Background"><path d="M1396.757,7703.821l1.299,8.071c19.834,58.684 49.461,212.71 206.161,413.501c45.787,58.67 181.547,196.979 388.812,295.728c353.033,168.199 531,149.714 763.747,166.076c13.194,0.928 13.048,-1.76 165.217,6.161c11.79,0.614 11.701,-0.64 147.393,-7.257c73.671,-3.593 345.309,-62.242 782.085,-95.072c31.628,-2.377 308.286,-37.289 381.938,-53.043c18.439,-3.944 230.228,-59.419 276.769,-95.253c34.852,-26.834 47.747,-57.717 115.757,-109.269c40.97,-31.055 58.717,-32.343 127.748,-98.627c14.326,-13.756 89.297,-85.743 203.283,-142.505c4.755,-2.368 29.836,-20.921 137.136,-10.399c42.609,4.179 90.407,30.091 73.577,69.513c-19.371,45.374 -34,43.291 -25.275,94.665c0.276,1.627 17.617,36.916 -34.54,118.213c-58.627,91.382 -160.247,48.514 -204.302,64.941c-61.902,23.082 -124.069,110.853 -215.179,175.692c-107.742,76.675 -161.53,205.15 -213.117,236.972c-73.317,45.227 -109.414,44.97 -119.637,44.897c-121.347,-0.866 -179.362,-57.589 -270.76,-28.835c-173.882,54.703 -310.052,73.094 -328.402,108.858c-0.036,0.07 -26.986,97.845 -75.791,150.174c-38.915,41.726 -48.326,4.675 -281.646,-33.46c-187.387,-30.627 -188.654,-53.799 -295.668,-24.702c-91.637,24.916 -114.336,23.789 -193.993,148.599c-29.322,45.944 -129.821,102.066 -212.045,51.991c-198.446,-120.854 -176.679,-156.608 -246.014,-175.781c-4.892,-1.353 -173.035,-25.784 -227.114,9.601c-77.514,50.72 -138.363,217.521 -251.023,181.314c-30.013,-9.646 -47.025,-54.667 -112.2,-133.701c-83.67,-101.463 -121.929,-203.355 -155.431,-218.458c-2.056,-0.927 -148.312,-64.206 -191.658,-67.317c-61.221,-4.394 -257.302,123.741 -331.731,52.24c-47.239,-45.38 -7.89,-315.024 -69.19,-382.779c-39.278,-43.414 -41.43,-41.021 -79.797,-85.587c-77.558,-90.088 -87.285,-114.838 -153.547,-115.601c-26.061,-0.3 -77.558,3.204 -157.355,-22.941c-24.289,-7.958 -60.414,-10.823 -86.132,-72.434c-66.121,-158.4 85.351,-261.842 42.672,-382.117c-53.64,-151.165 -67.975,-146.227 -156.582,-198.301c-51.221,-30.103 -73.34,-19.064 -119.209,-81.065c-6.066,-8.199 -44.75,-70.938 -49.973,-95.315c-2.297,-10.721 -8.184,-38.199 52.641,-126.541c0.907,-1.317 57.1,-61.549 79.118,-92.7c60.525,-85.631 82.805,-69.973 89.668,-101.851c4.467,-20.747 -14.793,-281.895 -18.854,-294.422c-47.308,-145.935 -215.623,-249.343 -229.597,-322.941c-22.165,-116.731 73.847,-73.475 264.49,-194.263c97.197,-61.583 88.12,-72.978 109.401,-143.166c38.446,-126.804 52.713,-140.396 -47.608,-278.024c-15.38,-21.099 -112.955,-174.466 -48.7,-215.27c30.054,-19.086 289.993,-143.105 315.969,-187.717c44.23,-75.964 -32.486,-253.356 -84.748,-318.203c-69.562,-86.312 -20.91,-133.253 -14,-136.44c57.779,-26.649 221.73,-52.777 240.837,-57.899c134.064,-35.933 168.028,50.689 213.366,-26.571c66.468,-113.268 -3.176,-143.026 -36.163,-258.875c-4.027,-14.142 -28.49,-78.586 73.029,-158.566c69.515,-54.765 256.619,-1.694 269.907,-66.896c1.334,-6.545 10.279,-190.782 -13.029,-278.437c-33.618,-126.429 -125.237,-154.737 -228.317,-174.517c-42.833,-8.219 -89.5,-7.687 -261.675,69.625c-112.695,50.604 -142.202,194.335 -226.144,251.955c-13.019,8.937 -96.945,52.092 -104.134,1.487c-9.472,-66.682 66.476,-193.511 128.46,-461.389c69.677,-301.121 82.396,-297.735 179.017,-737.404c39.203,-178.391 49.188,-234.896 -31.289,-319.529c-79.144,-83.23 -116.912,-126.719 -239.834,6.908c-154.047,167.463 -217.751,305.52 -288.042,287.46c-49.459,-12.708 8.131,-240.357 46.007,-348.309c100.979,-287.804 134.111,-332.615 187.075,-462.185c67.282,-164.596 82.786,-158.921 233.922,-435.121c47.112,-86.097 77.479,-112.784 190.866,-295.92c19.049,-30.766 74.506,-120.338 280.744,-354.654c178.202,-202.462 333.188,-265.269 425.063,-323.191c28.869,-18.2 159.937,-80.217 174,-86.872c152.43,-72.125 427.667,-177.901 435.706,-179.246c90.928,-15.217 86.912,-32.17 102.029,-88.763c19.041,-71.278 38.228,-169.466 114.786,-155.169c64.559,12.056 94.897,132.83 148.159,134.992c37.825,1.536 195.383,-27.649 192.445,72.928c-2.135,73.103 -96.569,125.514 -86.3,182.068c10.858,59.796 90.402,175.391 -20.15,205.251c-50.774,13.714 -204.413,-76.948 -236.134,-51.687c-19.378,15.431 -82.808,98.998 -89.409,109.999c-157.945,263.204 -145.163,288.193 -146.25,484.13c-1.399,252.198 -12.07,602.485 25.527,860.746c15.242,104.699 16.931,104.117 34.485,208.733c2.327,13.871 24.769,147.617 28.398,173.508c12.767,91.067 48.822,179.699 142.772,503.09c88.456,304.48 178.737,275.408 275.125,357.958c63.787,54.629 70.589,107.924 90.814,79.223c17.592,-24.965 -79.534,-110.031 -95.642,-280.48c-2.36,-24.969 -16.591,-175.572 22.164,-312.721c9.68,-34.256 23.835,-113.483 79.581,-87.529c24.553,11.431 52.024,88.114 69.219,26.991c21.017,-74.711 11.449,-77.093 39.838,-149.074c25.781,-65.369 -64.997,-128.911 -63.302,-354.966c0.753,-100.433 5.699,-216.249 93.836,-247.739c75.022,-26.804 164.504,147.093 197.155,98.981c17.474,-25.748 -41.88,-91.976 30.482,-241.012c91.591,-188.638 118.019,-201.626 136.011,-210.468c8.601,-4.227 61.803,-30.372 119.737,-3.855c27.467,12.572 20.186,112.123 115.107,107.356c70.759,-3.553 93.557,-76.464 293.207,-202.073c80.649,-50.74 188.648,-148.261 243.93,-64.838c24.584,37.099 -60.193,92.661 -65.555,190.178c-2.758,50.158 15.526,71.2 100.917,131.934c100.033,71.147 146.031,4.591 279.438,13.336c34.092,2.235 111.092,50.466 37.753,102.28c-75.71,53.489 -51.103,86.558 -92.459,247.037c-11.753,45.606 -52.026,133.691 115.326,139.814c47.005,1.72 108.534,-25.802 177.293,58.002c39.555,48.21 -66.233,80.428 -172.239,208.165c-97.993,118.082 93.103,149.351 117.067,185.215c66.236,99.128 -31.474,131.143 -66.183,193.72c-12.279,22.139 -6.146,42.407 64.027,95.809c24.498,18.643 79.462,39.07 101.868,163.194c12.404,68.718 -79.021,64.217 -147.72,188.624c-24.409,44.203 -29.273,101.407 32.271,67.027c85.153,-47.568 113.312,-72.775 237.288,-388.004c110.332,-280.536 140.072,-406.073 148.679,-442.405c83.393,-352.009 94.591,-478.468 98.33,-520.694c7.724,-87.225 10.284,-86.693 17.807,-173.756c22.887,-264.862 16.259,-264.97 30.462,-530.244c11.905,-222.35 -55.943,-357.081 -130.229,-492.961c-6.095,-11.148 -73.249,-112.161 -93.254,-120.346c-48.299,-19.76 -196.008,78.131 -261.514,35.09c-100.231,-65.856 46.187,-173.014 6.127,-240.502c-46.98,-79.145 -115.414,-137.819 -57.908,-199.789c54.093,-58.293 170.409,9.254 218.167,-34.119c43.328,-39.349 92.566,-157.008 168.49,-106.533c72.344,48.095 52.105,206.618 93.869,228.679c31.158,16.458 54.144,12.27 128.458,47.295c81.674,38.495 568.568,235.292 838.53,480.468c127.273,115.587 242.338,280.362 355.219,436.42c51.495,71.191 55.781,118.564 146.738,252.677c77.388,114.107 73.895,147.508 176.367,328.94c13.006,23.028 90.39,149.043 250.057,618.325c61.09,179.553 71.95,247.922 75.469,270.078c11.544,72.677 19.196,70.784 19.863,86.618c0.816,19.346 8.188,63.374 -31.48,127.528c-30.461,49.262 -65.304,-16.996 -83.628,-39.811c-61.325,-76.357 -214.4,-339.569 -312.046,-344.442c-14.182,-0.708 -58.779,-2.933 -144.8,102.652c-72.815,89.376 -44.633,137.13 -20.866,328.066c19.979,160.5 143.427,868.806 202.789,1050.684c8.598,26.342 29.314,71.597 23.352,174.467c-3.229,55.713 -32.413,32.564 -77.182,-0.614c-89.326,-66.199 -136.905,-230.803 -236.69,-283.148c-17.093,-8.967 -165.531,-86.833 -224.38,-88.717c-31.571,-1.011 -166.224,6.388 -231.85,62.987c-122.186,105.378 -110.9,366.661 -133.603,648.395c-45.614,566.037 -91.527,571.912 -144.617,612.533c-53.28,40.766 -20.984,-134.734 -31.543,-221.229c-0.48,-3.93 -13.373,-180.344 -13.822,-226.161c-1.281,-130.945 18.792,-132.6 -11.268,-260.247c-37.199,-157.961 -54.091,-181.132 -63.73,-194.355c-66.382,-91.059 -368.484,-343.068 -492.381,-392.746c-89.894,-36.044 -138.629,-35.205 -241.933,-52.911c-37.012,-6.344 -57.853,1.784 -36.185,32.427c70.557,99.784 100.4,165.94 154.067,425.501c48.177,233.005 -45.972,319.607 -122.985,513.077c-13.522,33.97 -11.734,64.63 -23.729,119.764c-12.401,56.997 -13.829,56.309 -25.056,113.228c-28.164,142.787 -25.037,142.873 -41.155,287.207c-29.745,266.35 -70.459,276.478 -128.396,383.352c-48.657,89.754 -26.238,207.786 -22.313,277.244c6.87,121.577 4.315,214.21 79.734,469.502c39.814,134.769 100.489,132.263 114.434,131.687c69.948,-2.889 207.983,-111.908 410.429,109.364c8.398,9.179 53.94,58.956 65.075,141.243c4.593,33.94 -13.156,35.911 -66.414,22.605c-119.82,-29.937 -148.229,-92.661 -358.65,-9.564c-116.582,46.039 -110.712,60.218 -127.754,117.317c-14.616,48.971 -96.696,75.743 -136.052,22.597c-31.757,-42.884 -46.216,-71.223 -116.205,-128.242c-47.457,-38.663 -182.243,-102.081 -235.179,-92.086c-118.954,22.461 -151.961,144.658 -218.02,93.704c-27.67,-21.343 -15.843,-197.73 45.134,-286.625c71.396,-104.085 175.777,-82.738 164.786,-131.323c-8.141,-35.982 -161.593,-105.424 -180.572,-183.016c-20.945,-85.626 38.472,-120.266 112.921,-205.63c48.398,-55.494 7.606,-103.131 -55.176,-81.372c-63.896,22.146 -95.807,51.091 -252.14,38.985c-105.999,-8.208 -131.759,-84.017 -162.603,-45.178c-12.684,15.972 -7.511,66.287 -74.218,188.194c-176.09,321.806 -21.901,383.061 13.242,407.161c68.219,46.784 71.781,43.596 127.718,116.277c29.203,37.944 125.25,170.863 138.046,225.882c5.109,21.968 14.818,166.5 -67.366,152.799c-121.888,-20.32 -316.053,-210.864 -439.625,-88.508c-18.692,18.508 -132.357,156.147 -175.953,99.009c-37.189,-48.741 -61.903,-218.679 -203.296,-149.504c-109.02,53.337 -115.731,79.018 -206.344,53.381c-67.26,-19.03 53.939,-122.745 7.204,-144.17c-39.732,-18.215 -45.49,80.566 -154.298,13.571c-29.835,-18.37 -29.385,-18.615 -59.662,-36.605c-6.638,-3.944 -75.233,-44.702 -94.568,-19.325c-21.218,27.849 99.591,107.036 103.998,179.334c3.851,63.17 -1.059,80.578 -107.331,96.901c-123.408,18.954 -151.515,-97.378 -287.486,-128.501c-25.069,-5.738 -82.186,-9.855 -189.294,-74.689c-41.42,-25.072 -157.887,-72.841 -234.762,-5.003c-39.83,35.148 -114.942,136.863 -244.453,135.442c-71.213,-0.781 -70.517,-43.002 -70.404,-49.905c0.664,-40.319 36.574,-126.491 65.217,-152.973c2.652,-2.452 96.482,-60.087 35.636,-165.859c-2.403,-4.177 -105.031,-132.75 -114.214,-144.254c-33.59,-42.081 -92.07,-136.993 -202.609,-100.549c-111.277,36.687 -109.013,205.255 -136.396,320.899c-14.643,61.837 14.737,303.809 28.208,365.152c19.947,90.829 36.104,84.785 66.683,172.262c12.826,36.69 16.235,35.038 28.132,72.029l1844.242,-953.296c9.845,6.195 68.148,53.972 55.252,-47.832c-18.426,-145.451 -87.375,-124.004 -107.156,-277.688c-8.777,-68.189 -58.994,-41.408 -197.72,-48.258c-49.225,-2.431 -246.587,23.729 -330.448,14.663c-75.669,-8.181 -95.528,-14.228 -108.029,23.387c-62.234,187.27 -63.092,264.389 -63.354,287.976c-1.319,118.6 102.93,9.86 188.596,5.25c85.221,-4.586 111.923,13.869 252.025,24.081c78.472,5.72 78.254,1.633 156.773,-1.954c113.997,-5.208 144.811,17.151 154.061,20.375l-1844.242,953.296l2425.876,-4428.566c-102.92,81.231 -99.142,161.486 -105.617,220.715c-7.551,69.067 21.35,116.504 6.964,208.995c-10.908,70.132 -6.632,72.579 -1.383,75.583c22.897,13.104 32.958,-55.733 130.583,-107.612c46.973,-24.962 40.451,-35.623 43.427,-159.375c1.218,-50.679 1.178,-236.398 -21.01,-258.636c-17.858,-17.898 -51.776,19.31 -52.965,20.33l-2425.876,4428.566l687.279,-1022.628c-112.68,73.354 31.517,139.775 64.636,108.809c24.605,-23.006 -1.309,-154.717 -51.32,-120.298c-1.159,0.798 -0.717,1.257 -13.317,11.489l-687.279,1022.628l1693.928,-621.89c-47.714,-45.401 -83.74,-86.307 -106.372,-64.396c-22.866,22.137 7.756,74.072 13.316,86.002c15.215,32.644 13.643,81.145 56.388,44.703c54,-46.037 43.495,-55.067 36.668,-66.309l-1693.928,621.89Z" style="fill:#150951;fill-opacity:0.99;"/><path d="M2711.157,5077.242l-6.631,5.335l-10.546,3.847c-139.874,108.472 -139.07,110.25 -208.42,201.678c-34.48,-38.714 -38.275,-41.723 -42.129,-44.779c-45.974,-36.453 -173.109,-21.489 -207.523,-14.525c-67.586,13.675 -30.8,39.372 -27.245,41.077c82.242,39.441 123.814,-31.072 233.827,113c50.964,66.742 45.911,72.971 30.069,130.079c-47.431,170.984 25.536,264.319 50.443,364.01c65.564,262.416 -21.756,359.074 -67.949,419.72l-11.23,-4.551l-8.69,-4.767c-106.283,23.2 -116.893,13.638 -131.115,9.854c-134.025,-35.665 -175.486,-112.731 -194.124,-254.597c-9.334,-71.048 -8.873,-70.869 -26.944,-140.376c-32.221,-123.94 -150.634,-176.723 -204.148,-179.268c-6.916,-0.329 -48.94,-2.328 -86.554,-0.049c-142.368,8.625 -246.917,89.692 -292.599,123.269c-7.075,5.2 -33.01,24.263 -77.061,78.156c-32.898,40.249 -109.839,106.815 -157.892,257.016l-4.081,8.69c-35.625,73.458 -36.144,73.147 -39.162,79.567c-38.402,81.68 -18.612,99.099 -33.829,130.683c-36.883,76.549 -43.66,73.55 -98.488,241.947c-29.158,89.554 -23.101,115.946 -26.782,138.625c-2.193,-0.174 -3.555,-3.066 -5.748,-3.241c-96.395,-7.659 -123.161,44.654 -193.401,25.383c-54.6,-14.98 -54.874,-22.436 -113.307,-10.032c-6.157,1.307 -12.071,3.813 -18.318,4.578c-4.573,0.56 -4.027,-1.951 -8.385,-1.309c-5.119,0.755 -3.859,3.114 -8.69,3.827c-0,-0 -7.427,6.965 -7.427,6.965l-7.98,8.95c0.22,-3.649 2.868,-41.171 3.285,-52.503c4.389,-119.209 23.009,-116.064 41.777,-234.001c30.603,-192.306 8.459,-196.818 69.999,-381.563c68.348,-205.183 79.439,-201.125 121.389,-347.808c121.819,-425.948 223.537,-500.627 329.372,-677.126c114.433,-190.838 262.946,-368.832 300.284,-331.16c28.34,28.594 11.199,429.123 96.317,486.006c40.388,26.991 49.89,-10.806 55.123,-104.292c12.782,-228.329 42.585,-322.22 40.801,-426.047c-1.367,-79.544 -1.299,-80.322 38.856,-207.156c24.14,-76.249 18.463,-150.332 285.334,-327.555c184.835,-122.745 253.934,-197.506 509.927,-212.48c109.08,-6.38 108.798,-4.555 217.202,-17.922c34.338,-4.234 51.568,22.254 52.237,43.838c2.601,83.822 -120.878,104.727 -129.877,217.296c-11.5,143.857 29.462,180.676 35.955,190.009c64.834,93.179 113.061,331.706 57.262,434.648c-52.251,96.397 -84.486,92.862 -113.186,209.054Z" style="fill:#8f1aec;"/><path d="M5292.956,1027.942c66.763,72.027 240.788,260.547 432.223,1104.643c72.531,319.811 136.215,776.73 139.416,816.459c1.011,12.549 1.569,12.411 19.323,156.18c29.17,236.214 26.29,323.913 42.402,417.278c8.711,50.479 39.546,335.823 38.933,521.149c-0.187,56.677 1.871,56.324 6.14,112.979c3.55,47.102 -2.55,46.642 -3.498,156.323c-0.836,96.679 -10.711,97.348 -6.121,104.337c2.87,4.371 9.475,5.309 12.345,9.681c-44.188,101.199 -38.029,110.415 -57.667,135.465c-63.992,81.629 -113.595,24.463 -136.445,3.463c-121.538,-111.693 -319.075,-256.515 -347.783,-277.562c-226.014,-165.7 -387.727,-123.207 -572.457,-119.814c-79.731,1.464 -89.108,-17.521 -84.963,-107.422c4.077,-88.418 -4.177,-128.821 -10.169,-200.01c-5.543,-65.856 86.754,-64.747 154.06,-107.175c41.149,-25.939 124.761,-78.645 285.195,-536.998c112.428,-321.201 195.926,-797.66 208.322,-1085.309c13.455,-312.219 19.58,-311.536 18.824,-338.66c-10.684,-383.253 -70.34,-495.113 -158.31,-684.752c-16.151,-34.818 2.21,-34.377 20.232,-80.254Z" style="fill:#fd607a;"/><path d="M5283.553,951.383l10.607,3.545c9.607,1.863 11.137,-2.208 27.657,10.216c67.933,51.087 149.757,110.23 339.65,321.678c265.604,295.754 687.227,903.343 889.248,1541.251c14.167,44.735 13.182,44.632 28.95,103.383c19.003,70.802 3.668,76.444 34.559,120.995c-39.678,73.143 -42.824,103.692 -43.82,113.364c-4.002,38.863 30.759,240.348 34.341,261.11c96.775,560.944 183.672,899.652 141.159,913.397c-10.752,3.476 -12.686,3.077 -123.165,-69.157c-134.511,-87.946 -328.681,-114.665 -442.634,-81.267c-123.565,36.215 -138.697,82.178 -205.986,237.073c-2.87,-4.371 -9.475,-5.309 -12.345,-9.681c-4.589,-6.989 5.286,-7.658 6.121,-104.337c0.948,-109.681 7.048,-109.22 3.498,-156.323c-4.269,-56.655 -6.328,-56.302 -6.14,-112.979c0.612,-185.325 -30.222,-470.67 -38.933,-521.149c-16.112,-93.365 -13.232,-181.064 -42.402,-417.278c-17.754,-143.769 -18.312,-143.631 -19.323,-156.18c-3.201,-39.729 -66.885,-496.648 -139.416,-816.459c-191.435,-844.096 -365.46,-1032.616 -432.223,-1104.643c4.937,-37.472 1.48,-39.847 -9.402,-76.56Z" style="fill:#fd8148;"/><path d="M2512.855,880.605c17.588,42.78 15.408,46.524 -11.389,84.462c-107.713,152.497 -147.305,346.078 -148.444,619.252c-1.788,428.556 4.758,543.548 51.69,938.059c15.558,130.782 139.284,739.23 277.687,953.672c43.373,67.202 95.864,51.674 71.13,123.28c-41.123,119.05 -58.932,170.173 40.26,312.434c29.528,42.348 -41.783,29.737 -46.07,28.979c-44.67,-7.9 -241.153,-26.784 -338.996,-2.799c-32.58,7.987 -138.241,33.889 -370.257,196.802c-85.761,60.218 -240.017,184.673 -263.418,188.933c-18.054,3.286 -59.875,-3.894 -71.349,-53.726c-20.71,-89.945 -28.256,-87.342 -56.955,-175.04c1.765,-1.155 4.521,0.436 6.286,-0.719c13.901,-9.098 0.117,-26.375 18.769,-206.871c1.728,-16.719 20.519,-198.562 21.095,-209.037c4.516,-82.144 52.988,-353.606 62.939,-391.013c4.794,-18.022 151.413,-1231.972 528.003,-2043.479c94.288,-203.179 123.324,-235.527 229.02,-363.19Z" style="fill:#fd607a;"/><path d="M2507.188,811.829c-3.958,34.856 -3.53,34.904 5.667,68.776c-105.696,127.663 -134.732,160.01 -229.02,363.19c-376.591,811.507 -523.209,2025.457 -528.003,2043.479c-9.951,37.407 -58.423,308.869 -62.939,391.013c-0.576,10.475 -19.367,192.318 -21.095,209.037c-18.652,180.496 -4.868,197.773 -18.769,206.871c-1.765,1.155 -4.521,-0.436 -6.286,0.719c-28.083,-90.771 -38.815,-191.988 -227.961,-227.26c-76.352,-14.238 -212.897,-2.686 -323.638,50.645c-84.889,40.881 -82.349,44.927 -136.333,74.873c-59.246,32.865 -38.245,-48.924 -18.563,-149.463c21.616,-110.414 204.195,-753.72 231.17,-964.982c7.877,-61.686 -41.593,-135.381 -42.354,-136.753c16.493,-28.758 11.307,-30.475 21.126,-62.366c1.256,-4.08 4.857,-15.117 14.136,-53.018c41.728,-170.449 164.694,-403.016 177.625,-424.313c16.156,-26.608 74.722,-130.869 81.139,-142.294c144.59,-257.405 379.514,-563.931 397.716,-586.514c81.645,-101.299 82.696,-100.2 89.669,-109.087c152.485,-194.357 397.176,-427.09 562.249,-540.667c6.389,-4.396 7.693,-0.274 14.354,-4.283c3.273,-1.971 4.104,-7.16 7.678,-8.51c3.887,-1.469 8.545,2.379 12.432,0.91Z" style="fill:#fd8148;"/><path d="M5283.553,951.383c-5.263,-3.494 -1.979,-6.116 -7.076,-9.5c-0.567,-0.376 -3.629,-2.41 -8.463,-0.817c-12.796,4.217 1.755,46.161 -8.495,69.782c-30.355,69.954 -104.369,-31.49 -131.744,-50.262c-51.093,-35.035 -170.718,65.826 -216.127,50.633c-48.957,-16.38 -4.343,-83.63 14.973,-148.845c18.468,-62.352 -71.285,-108.277 -83.327,-156.007c-20.156,-79.889 121.198,-47.951 173.414,-67.739c51.257,-19.424 124.899,-224.39 179.408,-18.166c39.447,149.24 73.384,137.34 160.258,178.738c186.035,88.649 231.065,107.248 295.398,148.554c373.471,239.798 470.525,287.343 685.685,523.162c305.484,334.816 479.748,722.364 607.901,1017.144c63.649,146.406 194.465,547.813 178.979,571.099c-17.805,26.774 -149.725,-91.879 -241.784,-132.46c-101.14,-44.585 -148.12,-51.084 -268.329,125.751c-30.892,-44.551 -15.556,-50.193 -34.559,-120.995c-15.769,-58.751 -14.783,-58.647 -28.95,-103.383c-202.021,-637.907 -623.644,-1245.497 -889.248,-1541.251c-189.893,-211.449 -271.716,-270.592 -339.65,-321.678c-16.52,-12.423 -18.05,-8.352 -27.657,-10.216l-10.607,-3.545Z" style="fill:#fdac0f;"/><path d="M3337.649,3685.184l-7.44,-8.429l-6.587,-6.809c33.144,-107.278 84.67,-119.077 80.02,-269.53c-0.346,-11.208 -7.108,-23.913 -5.517,-43.481c6.074,-74.7 -21.599,-141.541 20.989,-286.012c18.201,-61.743 -10.787,-87.713 68.847,-128.203c29.585,-15.042 133.399,-85.203 158.449,-122.225c55.557,-82.108 52.673,-83.988 119.14,-157.852c43.571,-48.42 95.567,-116.128 207.744,-148.396c34.27,-9.858 191.811,-2.675 248.749,114.414c17.652,36.3 19.253,36.98 55.206,51.032c43.137,16.859 56.701,74.352 115.114,109.485c66.07,39.739 133.817,83.386 115.155,256.239c-5.588,51.755 -14.497,52.099 -1.14,102.209c18.337,68.79 0.797,79.353 0.658,148.533c-0.015,7.661 -4.742,7.059 -6.62,95.532c-0.527,24.838 -5.072,34.463 -2.767,51.352c7.725,56.613 -4.228,57.504 7.729,113.493c5.283,24.738 -4.828,54.338 -4.96,61.225c-2.454,128.406 -4.21,128.688 5.809,173.244c15.143,67.351 8.126,120.451 113.136,276.589c50.857,75.619 48.72,77.712 74.781,97.601c-42.709,375.804 -54.148,492.334 88.817,597.577c32.902,24.221 60.321,20.698 68.336,20.866l0.024,7.324c-0.108,3.131 3.685,5.559 3.577,8.69c-0.097,2.794 -2.319,2.194 -8.034,34.012c-12.393,68.993 -146.463,380.045 -140.37,530.658c1.393,34.431 -13.789,69.429 35.253,268.738c34.517,140.28 72.137,146.339 78.633,158.267c1.339,2.459 -2.506,5.86 -1.167,8.319c-22.713,115.961 -38.945,244.63 -314.238,376.503c-8.794,4.212 -109.199,56.106 -76.221,-19.09c30.929,-70.525 75.835,-92.911 113.294,-305.27c26.446,-149.925 50.152,-391.064 35.471,-477.885c-31.736,-187.687 -69.392,-174.87 -118.594,-313.186c-5.442,-15.298 -79.862,-299.491 -88.089,-373.801c-6.724,-60.739 -0.268,-99.597 -13.493,-200.348c-28.493,-217.069 2.087,-218.127 -6.843,-356.283c-1.662,-25.707 1.284,-25.417 -17.265,-321.548c-11.196,-178.746 -5.1,-238.582 -81.999,-547.196c-23.45,-94.111 -45.42,-175.694 -142.884,-318.781c-78.239,-114.861 -303.001,-47.455 -403.543,33.144c-224.453,179.931 -178.693,529.694 -211.75,606.212c-14.134,32.717 -17.699,32.675 -155.411,103.067Z" style="fill:#8216d5;"/><path d="M2507.188,811.829c-3.887,1.469 -8.545,-2.379 -12.432,-0.91c-3.574,1.351 -4.405,6.54 -7.678,8.51c-6.66,4.01 -7.965,-0.113 -14.354,4.283c-165.073,113.577 -409.764,346.311 -562.249,540.667c-6.973,8.888 -8.024,7.789 -89.669,109.087c-18.202,22.584 -253.126,329.109 -397.716,586.514c-6.418,11.425 -64.984,115.687 -81.139,142.294c-12.931,21.297 -135.897,253.864 -177.625,424.313c-9.279,37.901 -12.879,48.938 -14.136,53.018c-9.819,31.891 -4.633,33.608 -21.126,62.366c-97.259,-142.087 -127.584,-196.323 -337.84,-73.981c-57.347,33.369 -55.792,35.216 -113.565,68.477c-70.2,40.416 -25.055,-63.815 -12.888,-99.822c193.68,-573.139 438.941,-930.618 575.011,-1127.728c58.332,-84.499 273.398,-343.01 488.858,-493.085c478.64,-333.39 808.609,-404.143 843.408,-441.438c58.837,-63.056 48.826,-272.439 144.935,-184.714c52.11,47.564 48.028,97.999 143.978,97.677c15.003,-0.05 114.055,-12.095 114.389,45.474c0.351,60.327 -113.926,91.637 -84.007,181.058c13.879,41.481 69.272,127.394 3.995,137.348c-47.858,7.298 -160.955,-93.124 -215.401,-47.269c-21.152,17.814 -100.645,124.663 -129.537,32.343c-9.985,-31.904 16.023,-89.481 -10.219,-75.633c-13.14,6.934 -30.999,46.707 -32.993,51.149Z" style="fill:#fdac0f;"/><path d="M2711.157,5077.242c-4.652,85.961 -6.505,133.26 58.856,204.19c117.449,127.456 161.152,133.187 168.569,136.543c0.144,1.654 3.221,2.018 3.365,3.672c0.291,3.341 -8.853,14.521 13.702,56.36c58.253,108.058 278.082,54.698 364.833,-27.706c2.842,-2.699 25.475,-24.199 35.3,-33.972c0.63,2.162 2.227,1.537 9.75,26.406c1.624,5.367 -6.569,6.195 6.585,69.781c0.981,4.74 -1.754,4.832 2.825,60.438c3.617,43.914 -3.721,44.208 5.016,87.47c0.958,4.742 2.855,47.504 3.038,51.638c0.608,13.7 -1.624,27.422 1.788,42.939c5.347,24.317 2.849,110.716 53.421,198.076c43.629,75.366 100.01,57.585 109.335,54.644c12.274,-3.871 11.758,-4.224 23.721,-8.421c4.618,13.589 4.138,13.291 8.968,26.392c42.616,115.572 140.316,157.298 164.293,217.581c17.96,45.154 -16.525,170.026 -89.359,313.455c-63.612,125.267 -63.766,127.263 -68.041,267.642c-5.027,165.094 63.67,166.163 183.739,255.364c75.514,56.099 35.37,107.948 -16.478,131.766c-22.444,10.31 -113.411,16.668 -128.898,14.895c-85.044,-9.735 -92.622,-20.386 -131.187,-33.739c-82.947,-28.72 -115.63,57.826 -180.263,12.412c-82.798,-58.178 -50.859,-97.665 -20.471,-138.648c86.498,-116.656 75.846,-160.502 92.125,-337.336c15.349,-166.718 -92.357,-225.127 -94.788,-296.002c-3.55,-103.508 124.007,-161.168 56.112,-347.094c-44.914,-122.995 -43.08,-123.501 -66.707,-235.368c-10.259,-48.57 -37.533,-36.319 -46.555,-17.282c-37.511,79.153 9.46,233.869 15.357,253.294c52.541,173.061 -13.553,182.666 -127.609,186.717c-211.475,7.511 -257.003,47.009 -443.076,39.027c-94.235,-4.042 -64.206,-48.381 -44.181,-157.198c44.663,-242.695 -93.536,-453.722 -96.422,-538.602c-2.717,-79.887 102.115,31.91 132.319,-17.156c38.653,-62.793 -38.99,-141.308 -184.582,-311.318c69.349,-91.428 68.546,-93.206 208.42,-201.678l10.546,-3.847l6.631,-5.335Z" style="fill:#8216d5;"/><path d="M2455.053,6296.683c-53.64,67.438 -122.754,156.555 -368.03,257.191c-160.167,65.716 -187.469,184.342 -144.181,251.271c80.961,125.177 260.343,94.683 353.237,97.86c117.107,4.005 270.428,66.973 303.241,88.052c7.082,4.549 76.973,49.449 26.131,101.919c-53.426,55.138 -93.179,21.058 -113.467,13.216c-59.895,-23.15 -94.345,-2.12 -79.014,32.19c9.898,22.15 155.982,141.12 36.592,132.897c-93.909,-6.468 -215.66,-77.58 -232.181,-86.087c-120.677,-62.137 -357.215,-14.354 -384.203,-82.794c-19.854,-50.349 16.542,-67.31 -77.682,-183.01c-32.18,-39.515 -147.908,-191.026 -254.19,-230.337c-91.886,-33.986 -135.268,17.01 -148.346,-64.175c-7.962,-49.427 -12.084,-51.179 -57.157,-73.383c-41.192,-20.292 -25.481,-47.16 -1.287,-56.317c106.402,-40.27 104.614,37.389 277.609,44.703c244.921,10.355 340.021,-289.776 244.68,-385.862c-44.914,-45.265 -48.657,-43.146 -73.969,-101.633c-17.25,-39.858 -40.202,-11.306 -40.757,-10.412c-35.489,57.216 22.673,131.791 38.337,154.667c59.514,86.917 -29.962,193.553 -100.21,224.854c-148.034,65.961 -187.657,-59.982 -390.228,1.264c-55.803,16.872 -64.446,77.173 -46.5,125.064c24.078,64.255 127.161,76.769 75.493,156.336c-50.923,78.421 -49.337,80.403 -76.55,155.849c-0.379,-0.262 -7.374,-10.84 -22.466,-15.536c-59.132,-18.398 -76.912,-61.612 -136.41,-55.223l-1.192,-8.366c3.68,-22.679 -2.376,-49.071 26.782,-138.625c54.828,-168.397 61.606,-165.397 98.488,-241.947c15.217,-31.584 -4.572,-49.003 33.829,-130.683c3.019,-6.42 3.537,-6.109 39.162,-79.567l4.081,-8.69c48.053,-150.2 124.994,-216.767 157.892,-257.016c44.05,-53.893 69.986,-72.956 77.061,-78.156c45.682,-33.578 150.231,-114.644 292.599,-123.269c37.614,-2.279 79.637,-0.28 86.554,0.049c53.515,2.545 171.927,55.328 204.148,179.268c18.07,69.507 17.61,69.329 26.944,140.376c18.638,141.866 60.099,218.932 194.124,254.597c14.222,3.784 24.832,13.346 131.115,-9.854l8.69,4.767l11.23,4.551Z" style="fill:#8218d5;"/><path d="M3337.649,3685.184c-153.325,79.554 -165.725,87.847 -170.966,210.803c-4.56,106.984 -153.649,-36.79 -69.728,-146.813c54.161,-71.006 12.966,-90.04 70.718,-181.853c27.428,-43.605 62.13,-63.751 66.161,-244.999c2.9,-130.44 -73.03,-123.079 -47.208,-251.166c8.469,-42.007 46.782,-180.164 67.691,-207.704c33.142,-43.65 194.335,-101.908 225.573,-235.831c32.421,-138.994 3.326,-162.16 130.513,-285.064c132.828,-128.355 142.37,-165.999 147.004,-184.279c17.545,-69.215 3.352,-147.045 119.003,-93.15c51.293,23.903 101.185,56.44 348.625,4.54c11.763,-2.467 52.981,-11.113 141.702,49.924c107.297,73.816 82.499,211.365 131.341,358.668c68.159,205.561 97.425,275.307 109.573,609.451c6.035,166.003 21.534,431.913 23.722,469.454c5.623,96.477 28.862,93.087 37.404,243.118c9.464,166.224 49.693,164.151 30.122,329.664c-0.334,2.826 -0.539,2.72 -4.754,35.247c-26.061,-19.889 -23.924,-21.982 -74.781,-97.601c-105.01,-156.137 -97.993,-209.238 -113.136,-276.589c-10.018,-44.556 -8.262,-44.839 -5.809,-173.244c0.132,-6.886 10.243,-36.487 4.96,-61.225c-11.957,-55.989 -0.004,-56.879 -7.729,-113.493c-2.305,-16.889 2.24,-26.514 2.767,-51.352c1.877,-88.473 6.604,-87.871 6.62,-95.532c0.139,-69.18 17.679,-79.743 -0.658,-148.533c-13.358,-50.111 -4.448,-50.454 1.14,-102.209c18.662,-172.853 -49.085,-216.5 -115.155,-256.239c-58.412,-35.134 -71.976,-92.626 -115.114,-109.485c-35.953,-14.052 -37.554,-14.732 -55.206,-51.032c-56.938,-117.089 -214.479,-124.272 -248.749,-114.414c-112.176,32.268 -164.173,99.976 -207.744,148.396c-66.467,73.864 -63.583,75.743 -119.14,157.852c-25.05,37.022 -128.864,107.183 -158.449,122.225c-79.635,40.49 -50.646,66.46 -68.847,128.203c-42.588,144.471 -14.915,211.312 -20.989,286.012c-1.591,19.569 5.17,32.273 5.517,43.481c4.65,150.453 -46.876,162.252 -80.02,269.53l6.587,6.809l7.44,8.429Z" style="fill:#8f18ec;"/><path d="M2935.179,4747.79c-19.214,-201.444 -34.603,-248.375 -41.389,-269.07c-36.162,-110.283 -134.535,-159.158 -62.943,-255.675c84.387,-113.767 189.894,-170.982 27.46,-359.682c-86.397,-100.368 -85.532,-113.818 -42.103,-220.055c41.932,-102.577 117.128,-24.139 174.382,217.986c14.845,62.777 0.17,140.638 148.583,154.65c180.346,17.026 77.278,-134.12 138.992,-198.18c42.133,-43.735 292.648,-142.902 296.562,-144.316c148.695,-53.727 4.041,129.888 -32.592,249.393c-19.944,65.062 38.651,72.453 46.23,112.629c11.755,62.317 18.503,67.87 81.076,75.545c93.252,11.438 22.13,70.633 19.394,73.706c-114.401,128.527 -113.99,175.304 -96.379,258.271c12.84,60.489 -22.186,63.358 -130.742,124.091c-236.981,132.583 -202.871,350.943 -263.605,544.884c-45.725,146.017 -165.102,203.608 -215.664,205.821c-80.477,3.523 -195.636,-152.479 -183.852,-214.224c24.462,-128.172 136.379,-149.763 136.589,-355.775Z" style="fill:#8f1aec;"/><path d="M3646.782,5390.516c2.039,-14.126 -1.811,-43.875 41.332,-65.837c27.728,-14.115 56.57,9.115 60.409,12.208c21.829,17.582 155.815,125.502 328.967,120.55c160.108,-4.579 303.671,-158.09 355.751,-165.697c17.339,-2.532 51.905,-6.075 55.543,211.876c0.385,23.085 -9.264,29.529 -26.28,14.198c-101.019,-91.019 -195.221,-7.481 -192.737,55.213c3.675,92.741 134.194,74.652 113.541,25.267c-9.702,-23.198 -54.836,0.381 -58.591,-25.655c-5.8,-40.217 103.722,-49.292 122.899,18.731c17.676,62.701 -210.304,225.291 -232.088,240.828c-169.65,120.991 -387.082,93.825 -515.609,-64.616c-115.773,-142.717 -122.661,-167.927 -108.4,-202.963c26.965,-66.246 28.269,-75.093 51.384,-69.21c132.393,33.695 120.036,-100.504 77.854,-110.556c-41.038,-9.779 -11.911,60.602 -34.72,65.046c-30.523,5.947 -38.5,-53.738 -39.255,-59.382Z" style="fill:#e549ef;"/><path d="M4672.422,6398.344c3.63,46.305 26.59,339.156 137.069,564.179c72.794,148.266 185.596,73.913 213.59,115.114c17.694,26.043 -62.617,88.881 -171.551,73.39c-70.911,-10.084 -71.941,-19.902 -140.452,0.626c-66.223,19.843 -123.936,-38.488 -258.842,-78.677c-26.171,-7.797 -117.909,-30.74 -111.906,-74.36c7.001,-50.879 200.969,-51.268 200.826,-104.715c-0.17,-63.549 -223.806,-229.887 -232.092,-259.729c-14.738,-53.079 104.573,-88.565 121.557,-192.619c13.657,-83.672 -27.846,-141.095 38.725,-162.246c71.232,-22.632 71.287,-21.646 139.454,-51.768c44.107,-19.49 54.41,8.058 63.622,170.806Z" style="fill:#49177b;"/><path d="M4851.297,4783.638c88.732,-31.863 -56.615,-92.001 -88.801,-200.744c-22.216,-75.061 -46.746,-311.337 27.641,-311.674c97.572,-0.442 157.883,149.827 215.482,320.458c103.415,306.354 -54.023,399.17 -104.135,572.433c-11.508,39.788 1.154,41.315 -65.404,513.583c-8.607,61.073 -6.825,61.071 -16.867,121.953c-1.339,-2.459 2.506,-5.86 1.167,-8.319c-6.496,-11.928 -44.116,-17.988 -78.633,-158.267c-49.042,-199.308 -33.86,-234.307 -35.253,-268.738c-6.093,-150.613 127.977,-461.665 140.37,-530.658c5.715,-31.818 7.937,-31.218 8.034,-34.012c0.108,-3.131 -3.685,-5.559 -3.577,-8.69l-0.024,-7.324Z" style="fill:#8f18ec;"/><path d="M4473.656,5781.595c-19.537,239.28 -196.061,514.673 -352.039,550.18c-102.305,23.289 -171.044,-2.18 -356.069,-194.65c-9.244,-9.616 -77.14,-86.722 -80.501,-94.078c-14.905,-32.62 59.563,-23.574 65.723,-87.256c6.215,-64.243 -98.354,-86.843 -63.428,-26.947c32.653,55.998 -42.226,45.712 -56.102,-7.315c-5.251,-20.068 -9.51,-119.608 60.881,-66.46c14.582,11.01 81.226,54.887 88.346,59.575c29.317,19.302 181.543,91.337 357.09,21.403c211.691,-84.333 324.568,-290.182 336.025,-162.987c0.255,2.834 -0.182,5.703 0.074,8.537Z" style="fill:#cf3aef;"/><path d="M4277.897,5161.482c-14.974,-4.568 -20.929,0.797 -23.681,-14.692c-1.473,-8.288 5.882,-14.879 6.91,-15.8c46.557,-41.723 137.902,21.199 108.744,75.517c-18.183,33.873 -174.555,126.388 -230.029,152.527c-21.301,10.037 -122.217,57.588 -289.449,-53.422c-152.375,-101.148 -159.53,-128.915 -143.094,-201.059c12.637,-55.47 38.454,9.148 101.03,0.381c108.506,-15.202 60.586,-153.354 9.241,-129.578c-41.638,19.281 32.549,69.422 -9.411,76.282c-46.067,7.532 -79.939,-76.537 -41.255,-119.745c60.375,-67.436 102.263,56.317 249.959,53.581c76.816,-1.423 189.927,-57.804 244.615,-96.838c63.605,-45.399 76.172,-8.775 89.969,68.217c16.728,93.348 25.338,119.726 -4.078,110.654c-10.452,-3.224 -97.168,-29.968 -132.018,35.581c-54.864,103.195 86.113,137.876 94.702,87.126c4.746,-28.042 -31.179,-28.542 -32.154,-28.732Z" style="fill:#f762e1;"/><path d="M3711.449,4712.951c-1.721,0.412 -8.838,-7.551 -36.063,13.934c-112.738,88.968 -180.095,139.33 -203.56,359.849c-25.014,235.082 -35.748,236.549 -116.044,329.595c-9.825,9.773 -32.458,31.272 -35.3,33.972c-86.751,82.404 -306.58,135.764 -364.833,27.706c-22.555,-41.839 -13.411,-53.019 -13.702,-56.36c-0.144,-1.654 -3.221,-2.018 -3.365,-3.672c35.497,-3.776 210.461,8.371 325.156,-208.342c94.228,-178.041 62.974,-474.955 215.843,-554.609c70.937,-36.962 69.271,-39.432 138.775,-78.815c125.666,-71.205 108.385,51.971 93.092,136.743Z" style="fill:#60109a;"/><path d="M2913.035,8702.573c212.354,11.791 432.419,-49.586 555.955,-64.05c108.259,-12.675 109.797,4.136 252.156,-24.514c151.364,-30.462 156.019,-5.409 261.693,-30.662c181.06,-43.268 187.25,-19.284 494.861,-124.022c162.888,-55.461 145.297,-94.441 227.402,-145.412c18.914,-11.742 34.327,-1.842 19.157,16.005c-61.561,72.422 -100.32,136.837 -220.249,182.059c-283.001,106.711 -338.051,116.689 -522.822,169.371c-126.625,36.103 -128.352,27.838 -207.322,48.049c-237.422,60.765 -247.13,14.118 -426.393,76.038c-96.555,33.352 -98.548,23.444 -199.192,38.517c-69.575,10.42 -76.64,35.705 -252.786,24.993c0,-0 2.027,-11.04 2.027,-11.04l1.986,-8.69c-3.394,-3.64 -0.568,-5.022 -3.922,-8.62c-4.275,-4.586 -0.938,-5.755 -0.367,-8.646c1.138,-5.762 -0.233,-11.748 -0.112,-17.621c0.674,-32.658 4.06,-50.46 4.217,-50.806c0.535,-1.184 3.007,-0.44 3.542,-1.624c5.844,-30.642 4.485,-30.822 5.252,-33.417c0.294,-0.994 2.577,-0.761 2.538,-1.797c-0.162,-4.285 -2.727,-3.194 -2.901,-7.82l0.931,-8.69l4.349,-7.601Z" style="fill:#f8dc8d;"/><path d="M3711.449,4712.951c-6.801,127.53 -102.959,419.507 -130.651,590.499c-68.211,421.184 -21.166,641.404 -9.536,695.849c-11.963,4.197 -11.447,4.55 -23.721,8.421c-9.326,2.941 -65.706,20.722 -109.335,-54.644c-50.572,-87.36 -48.075,-173.76 -53.421,-198.076c-3.412,-15.517 -1.18,-29.239 -1.788,-42.939c-0.183,-4.134 -2.08,-46.896 -3.038,-51.638c-8.737,-43.262 -1.399,-43.556 -5.016,-87.47c-4.58,-55.605 -1.845,-55.698 -2.825,-60.438c-13.155,-63.586 -4.961,-64.414 -6.585,-69.781c-7.523,-24.87 -9.12,-24.244 -9.75,-26.406c80.296,-93.047 91.029,-94.514 116.044,-329.595c23.465,-220.518 90.822,-270.88 203.56,-359.849c27.225,-21.485 34.341,-13.522 36.063,-13.934Z" style="fill:#8f18ec;"/><path d="M3787.135,4694.959c5.045,-39.419 4.876,-39.187 5.448,-42.572c7.114,-42.067 47.265,38.283 120.148,8.893c93.291,-37.62 17.778,-154.307 -17.66,-122.318c-20.622,18.615 6.384,46.26 7.911,52.358c11.909,47.562 -83.128,8.949 -69.585,-61.214c12.921,-66.944 61.564,-42.532 79.798,-37.123c220.466,65.404 290.311,-46.089 329.253,-23.183c8.09,4.758 16.284,9.578 31.312,113.066c4.037,27.8 14.281,65.442 -14.41,53.789c-104.518,-42.453 -166.916,64.57 -109.76,116.818c42.399,38.758 100.131,2.833 48.604,-30.343c-58.342,-37.563 40.906,-55.528 70.103,-1.429c27.98,51.844 -12.465,61.142 -44.116,85.124c-202.635,153.533 -286.53,104.003 -367.295,40.542c-77.639,-61.004 -79.336,-69.253 -69.75,-152.407Z" style="fill:#fa82c5;"/><path d="M1062.354,6780.882l1.192,8.366c-7.023,24.707 -7.333,24.478 -7.585,26.683c-7.338,64.148 -8.294,63.947 -8.648,69.542c-2.223,35.216 -7.073,34.459 -8.776,69.697c-1.858,38.449 -9.443,44.304 -7.47,60.008c4.779,38.035 -1.974,37.653 -1.962,76.046c-3.567,1.081 -28.329,8.585 -45.004,12.039c-3.03,-1.141 -4.225,-6.598 -26.292,-7.068c-24.93,-0.531 -22.911,6.688 -26.629,8.414c-29.864,-7.399 -31.209,0.054 -60.325,-10.541c-29.175,-10.616 -84.895,7.938 -111.094,28.231c-2.258,1.749 -2.019,1.894 -27.878,22.311l-8.476,10.02c-35.037,-187.701 -39.767,-188.46 -24.312,-338.626l7.98,-8.95l7.427,-6.965c4.831,-0.712 3.571,-3.072 8.69,-3.827c4.358,-0.643 3.813,1.868 8.385,1.309c6.247,-0.765 12.162,-3.271 18.318,-4.578c58.433,-12.404 58.707,-4.949 113.307,10.032c70.241,19.272 97.006,-33.041 193.401,-25.383c2.193,0.174 3.555,3.066 5.748,3.241Z" style="fill:#a422ef;"/><path d="M3271.573,6938.433c-40.309,67.095 -76.825,102.49 -87.492,106.674c-18.102,7.101 -24.452,7.619 -118.159,-95.766c-60.314,-66.543 -77.259,-97.34 -104.227,-48.584c-62.69,113.338 -109.747,32.421 -180.425,-3.933c-54.241,-27.899 -61.505,32.228 -118.948,3.214c-59.335,-29.969 -85.98,-48.852 -33.843,-90.254c67.321,-53.461 78.39,-16.646 353.973,-31.207c69.3,-3.662 204.502,-16.794 284.22,108.37c14.76,23.175 11.967,24.793 4.902,51.485Z" style="fill:#49177b;"/><path d="M1045.73,7371.158c0.179,2.083 2.123,24.746 2.414,26.015c10.876,47.462 7.925,47.763 9.084,51.808c6.25,21.807 2.502,22.159 7.71,43.974c12.011,50.315 24.293,125.259 25.739,130.256c6.077,21.008 3.244,21.099 7.306,42.856l5.125,13.196c-2.835,-0.076 -2.861,-6.243 -5.696,-6.319c-1.453,-0.039 -26.118,24.806 -53.676,35.321c-6.462,2.466 -110.104,27.169 -142.934,58.778c-1.732,1.667 -0.549,2.513 -20.134,22.305c-8.398,8.487 -8.429,7.995 -17.088,16.208c-0.437,-0.591 -20.546,-28.715 -22.331,-31.213c-66.651,-93.218 -52.785,-100.613 -80.98,-298.327l8.296,-8.519c17.584,-12.149 17.968,-10.809 34.429,-24.045c40.339,-32.438 54.342,-15.605 94.246,-26.764c14.567,-4.074 51.297,2.15 114.27,-33.277c31.539,-17.743 33.011,-12.067 34.222,-12.253Z" style="fill:#cf3aef;"/><path d="M2131.784,8586.225c158.339,68.103 251.623,76.747 398.898,89.843l2.509,8.036l3.046,8.69c-0.766,2.508 1.503,5.324 0.737,7.832c-0.378,1.236 -3.403,0.204 -3.582,1.484c-0.338,2.409 2.669,4.47 2.408,6.889c-0.095,0.884 0.884,-0.339 -1.867,9.807c-2.081,7.677 -14.384,25.871 -15.73,27.974c-7.347,11.475 -8.889,33.833 -9.51,36.597c-4.229,22.476 -4.713,19.322 -4.114,31.95c0.6,12.659 -0.683,14.558 -0.02,16.53c0.933,3.245 -2.403,6.778 -1.469,10.023c0.187,0.651 0.035,0.302 19.056,21.114c-92.354,2.552 -92.232,12.989 -156.637,4.438c-149.518,-19.852 -152.308,-6.356 -321.382,-61.786c0.075,-2.977 2.439,-5.595 2.514,-8.572c0.148,-5.861 -1.443,-11.643 -1.856,-17.491c-1.138,-16.112 7.628,-59.729 10.904,-68.356c7.687,-20.244 10.635,-18.512 11.196,-20.278c0.455,-1.433 -1.902,-2.94 -1.302,-4.319c3.035,-6.973 36.471,-31.903 51.415,-61.869c7.357,-24.929 3.415,-25.536 4.36,-27.558c2.136,-4.572 8.29,-6.406 10.426,-10.979Z" style="fill:#fbb6a2;"/><path d="M1217.573,8005.076c19.735,6.878 18.261,10.082 45.638,61.362c49.388,92.507 206.831,228.046 217.435,235.964l-1.974,7.141c-20.747,7.117 -35.486,20.156 -44.134,24.533c-22.623,11.452 -41.134,11.832 -76.858,54.649c-6.373,7.638 -5.316,7.958 -10.197,16.517c-14.208,24.913 -12.411,25.439 -21.558,52.92l-3.274,8.884c-117.421,-90.849 -255.78,-234.559 -295.963,-321.45c20.941,-21.04 45.082,-60.924 128.792,-91.249c2.528,-0.916 35.548,-22.284 62.093,-49.272Z" style="fill:#f962e1;"/><path d="M1029.105,7091.224c0.51,2.341 4.877,2.419 5.387,4.76c0.568,2.606 -2.068,4.939 -2.708,7.529c-3.996,16.181 1.528,39.658 2.318,43.013c5.592,23.766 4.312,62.857 4.32,103.625c0.001,4.214 11.038,27.862 7.653,112.874l-0.345,8.134c-1.211,0.186 -2.682,-5.49 -34.222,12.253c-62.973,35.427 -99.703,29.203 -114.27,33.277c-39.904,11.159 -53.907,-5.674 -94.246,26.764c-16.46,13.236 -16.845,11.897 -34.429,24.045l-8.296,8.519c-17.256,-160.922 -13.917,-161.052 -36.859,-321.386c0,0 8.476,-10.02 8.476,-10.02c25.86,-20.416 25.62,-20.561 27.878,-22.311c26.199,-20.293 81.919,-38.847 111.094,-28.231c29.116,10.595 30.461,3.142 60.325,10.541c33.895,3.47 33.993,4.173 52.92,-1.346c16.674,-3.453 41.437,-10.958 45.004,-12.039Z" style="fill:#b72def;"/><path d="M1103.107,7679.264c55.233,237.612 109.438,252.201 120.347,316.417c-1.96,3.132 -3.92,6.263 -5.88,9.395c-26.545,26.988 -59.565,48.356 -62.093,49.272c-83.71,30.326 -107.851,70.209 -128.792,91.249c-59.358,-110.364 -113.223,-169.68 -123.618,-243.212c-6.709,-47.457 -7.188,-48.037 -39.492,-96.829c8.659,-8.213 8.69,-7.721 17.088,-16.208c19.585,-19.791 18.402,-20.637 20.134,-22.305c32.83,-31.609 136.472,-56.312 142.934,-58.778c27.558,-10.515 52.223,-35.36 53.676,-35.321c2.835,0.076 2.861,6.243 5.696,6.319Z" style="fill:#e549ef;"/><path d="M1478.673,8309.544c2.529,1.361 5.953,-2.876 8.483,-1.515c4.284,2.305 5.917,7.77 9.417,11.148c9.185,8.866 122.554,96.15 138.718,104.793c53.328,28.514 49.21,35.365 137.217,80.673c12.931,6.657 18.078,7.199 18.941,21.614c-13.88,2.486 -10.97,7.327 -11.895,8.117c-2.853,2.437 -4.976,2.867 -7.701,5.319c-1.802,1.622 -3.873,2.302 -5.64,3.962c-1.672,1.571 -3.394,3.111 -5.014,4.735c-1.666,1.671 -4.558,5.789 -6.199,7.401c-1.701,1.671 -5.991,5.878 -7.679,7.445c-1.772,1.645 -4.443,3.759 -6.144,5.477c-1.709,1.727 -5.059,8.565 -7.807,11.336c-2.855,2.879 -6.749,4.71 -7.956,6.175c0,0 -3.808,11.248 -4.098,12.464c-2.557,5.872 -4.799,10.484 -7.356,16.356c-0.266,0.602 -0.4,5.97 -0.41,17.587c-0.011,13.32 -0.378,12.228 -1.041,25.573c-0.826,16.633 -0.345,8.496 -0.911,34.59l1.183,11.369c-131.453,-52.41 -211.765,-99.225 -390.129,-237.116l3.274,-8.884c9.146,-27.481 7.349,-28.007 21.558,-52.92c4.882,-8.559 3.824,-8.879 10.197,-16.517c35.725,-42.817 54.235,-43.198 76.858,-54.649c8.648,-4.377 23.387,-17.416 44.134,-24.533Z" style="fill:#fb82c5;"/><path d="M4198.89,4118.246c26.223,-1.868 63.188,-11.118 70.377,29.559c0.422,2.388 5.534,19.403 -9.478,104.314c-9.449,53.449 -43.172,-32.159 -113.556,-11.46c-109.161,32.103 -36.721,154.56 2.852,128.242c23.534,-15.651 3.359,-36.87 -1.771,-47.338c-26.625,-54.332 68.115,-21.927 67.353,34.877c-0.169,12.581 -0.488,36.389 -137.77,75.859c-108.524,31.202 -220.302,-52.613 -206.945,-136.501c4.631,-29.084 8.756,-63.624 35.955,-47.824c93.146,54.111 144.244,-25.647 134.955,-64.932c-16.135,-68.237 -95.968,-53.366 -65.73,-10.43c19.26,27.347 12.406,46.256 -19.364,36.48c-65.544,-20.17 -47.128,-167.999 44.069,-131.876c53.908,21.353 48.478,54.208 199.053,41.029Z" style="fill:#f994b7;"/><path d="M3422.4,2505.394c-4.315,43.121 -3.691,142.717 -100.161,218.301c-37.944,29.729 -87.055,66.956 -130.642,-70.628c-23.07,-72.822 -78.018,-425.117 28.412,-333.327c55.038,47.468 77.464,75.58 154.951,113.513c48.663,23.823 44.57,33.513 47.44,72.142Z" style="fill:#fd86b4;"/><path d="M3970.124,3775.244c-0.539,-3.485 -4.931,-31.884 3.994,-43.894c11.099,-14.935 27.432,-19.413 42.348,-20.524c89.045,-6.635 90.101,-0.781 175.304,-28.403c45.491,-14.748 51.287,20.293 58.503,109.273c2.98,36.741 14.885,148.398 8.996,155.69c-13.986,17.319 -34.064,-31.705 -77.426,-25.36c-69.056,10.104 -64.729,103.16 -17.4,102.152c28.162,-0.6 16.609,-14.664 8.186,-41.282c-4.988,-15.763 14.136,-21.59 32.894,-5.708c56.341,47.704 -32.268,117.335 -146.918,42.916c-90.441,-58.704 -111.227,-63.42 -113.964,-159.086c-0.879,-30.739 38.149,-7.548 54.569,-6.584c84.633,4.969 77.114,-110.693 25.263,-101.261c-23.793,4.328 -10.596,14.429 -4.983,37.661c4.559,18.871 -23.753,41.405 -49.367,-15.59Z" style="fill:#f8b4a2;"/><path d="M3251.127,4129.59c15.108,-4.695 20.071,-13.402 25.555,1.53c2.581,7.027 -5.553,23.972 -6.477,25.897c-30.525,63.596 -67.706,82.129 -60.896,129.493c10.854,8.897 11.442,10.848 24.651,6.587c54.846,-17.695 77.734,-60.742 153.556,-36.58c3.237,4.868 7.528,8.977 10.765,13.845c26.152,39.323 -44.421,181.585 -85.436,172.958c-17.305,-3.64 -8.997,-10.754 -1.562,-26.819c1.122,-2.423 0.224,-5.582 1.651,-7.839c0.944,-1.492 3.58,-1.002 4.767,-2.309c9.004,-9.911 38.914,-74.965 19.837,-91.712c-15.738,-13.816 -59.972,13.46 -60.061,13.507c-10.572,7.3 -10.575,6.813 -15.931,11.653c-58.147,34.185 -57.926,52.93 -20.484,88.319c16.468,15.565 15.699,29.804 -6.528,26.701c-76.272,-10.645 -91.824,-3.528 -111.019,84.545c-41.012,188.175 -41.198,282.573 -70.724,275.7c-13.013,-3.029 -11.766,-54.241 -11.649,-59.055l3.459,-25.716c2.301,-43.806 2.094,-43.352 4.908,-87.304c8.598,-134.288 45.548,-298.858 85.282,-375.574c53.435,-103.17 116.084,-137.633 116.336,-137.828Z" style="fill:#170952;"/><g><path d="M2904.913,8756.7c0.089,-1.515 -3.692,9.726 -5.443,15.175c-0.493,1.534 -1.166,3.172 -1.166,3.172l1.25,55.266c0,0 0.611,20.814 2.695,22.866l-6.754,15.766c-186.899,-3.538 -186.516,-1.143 -373.348,-5.95c-19.021,-20.812 -18.869,-20.462 -19.056,-21.114c-0.933,-3.245 2.403,-6.778 1.469,-10.023c0.027,-4.187 0.169,-26.095 -0.996,-52.326c0.621,-2.764 4.888,-21.757 12.236,-33.232c1.346,-2.103 12.687,-19.816 14.768,-27.493c2.75,-10.146 5.137,-8.923 5.232,-9.807c0.26,-2.419 -2.746,-4.48 -2.408,-6.889c0.179,-1.28 3.205,-0.248 3.582,-1.484c0.766,-2.508 -1.503,-5.324 -0.737,-7.832l-3.046,-8.69l-2.509,-8.036c144.143,8.421 351.779,24.184 382.352,26.505l-4.349,7.601l-0.931,8.69c0.175,4.626 2.739,3.535 2.901,7.82c0.039,1.036 -2.244,0.803 -2.538,1.797c-0.767,2.595 2.64,-2.424 -3.204,28.218Z" style="fill:#fbd095;"/></g><path d="M1801.037,8521.487c69.178,26.668 67.521,30.355 137.568,53.947c93.974,31.65 135.03,33.722 159.679,45.389c0,0 17.217,3.623 18.715,3.938c-14.944,29.965 -48.379,54.896 -51.415,61.869c-0.6,1.379 1.757,2.886 1.302,4.319c-0.561,1.766 -3.509,0.035 -11.196,20.278c-3.276,8.627 -12.042,52.244 -10.904,68.356c0.413,5.849 2.004,11.63 1.856,17.491c-0.075,2.977 -2.439,5.595 -2.514,8.572c-91.023,-31.528 -89.474,-34.972 -148.269,-50.014c-92.398,-23.639 -93.078,-19.848 -183.078,-51.469l-1.183,-11.369c0.567,-26.094 -0.576,-48.231 -0.792,-52.42c0.913,-8.628 1.826,-17.255 2.739,-25.883c1.239,-3.601 5.144,-5.873 6.383,-9.474c1.814,-5.275 0.273,-11.45 2.564,-16.536c0.821,-1.823 4.399,-0.326 5.711,-1.835c1.688,-1.942 0.753,-5.31 2.293,-7.371c1.947,-2.607 3.138,-0.335 5.33,-2.833c2.586,-2.947 0.449,-3.753 2.838,-6.475c1.552,-1.578 4.353,-1.458 5.905,-3.036c1.519,-1.545 1.196,-4.429 2.832,-5.85c1.801,-1.564 4.934,-0.874 6.724,-2.45c1.553,-1.368 0.932,-4.339 2.509,-5.679c1.808,-1.536 4.981,-0.641 6.769,-2.201c1.593,-1.39 0.908,-4.409 2.457,-5.849c1.694,-1.575 4.807,-0.875 6.486,-2.466c1.56,-1.477 0.875,-4.482 2.423,-5.971c2.698,-2.596 3.667,-0.036 6.517,-2.631c2.565,-2.335 0.121,-3.412 2.531,-5.607c5.74,-2.246 11.48,-4.493 17.219,-6.739Z" style="fill:#fb94b7;"/><path d="M1045.204,5873.691c-2.505,-0.497 -27.537,-5.467 -29.171,-12.979c-7.288,-33.517 63.381,-9.37 114.765,-45.517c120.499,-84.768 64.513,-282.531 97.436,-290.116c34.577,-7.965 -1.517,109.056 40.635,213.812c53.394,132.695 179.864,81.267 174.733,120.761c-1.567,12.059 -39.178,14.877 -42.8,15.148c-184.331,13.81 -149.461,267.959 -156.924,297.669c-3.307,13.162 -28.693,26.722 -28.888,-17.152c-0.037,-8.363 -0.356,-80.38 -4.024,-104.459c-28.551,-187.443 -158.834,-176.379 -165.763,-177.167Z" style="fill:#f9db90;"/><path d="M3455.709,2218.966c0.167,-2.13 2.093,-26.62 2.093,-26.62c5.113,-65.232 64.255,-207.595 104.337,-270.712c42.3,-66.608 42.327,18.807 64.527,53.137c28.545,44.142 148.83,101.046 -22.944,265.535c-54.351,52.046 -105.736,110.719 -133.045,72.982c-14.464,-19.986 -14.917,-86.682 -14.969,-94.322Z" style="fill:#fd86b4;"/><path d="M6060.47,1513.397c-14.256,-15.629 -113.081,-123.97 -183.248,-190.645c-402.957,-382.901 -577.824,-409.932 -574.528,-442.349c3.357,-33.016 137.919,47.403 192.236,85.585c644.365,452.958 966.748,1022.883 978.398,1053.825c9.636,25.593 -16.214,46.21 -38.634,6.529c-24.987,-44.225 -149.118,-263.921 -374.224,-512.945Z" style="fill:#fffb1c;"/><path d="M1530.441,1514.083c33.935,-41.789 119.692,-151.473 282.82,-317.017c391.066,-396.858 705.051,-556.447 725.176,-532.959c21.416,24.994 -102.203,53.156 -304.088,206.423c-593.227,450.367 -835.784,901.53 -849.546,923.155c-21.031,33.048 -51.213,14.536 -33.976,-17.169c46.906,-86.276 164.306,-242.113 179.614,-262.433Z" style="fill:#fffb1c;"/><path d="M1343.517,7909.249c51.522,111.99 137.683,238.873 199.783,302.593c-4.39,7.215 -51.943,85.379 -56.565,89.139c-1.617,1.315 -4.472,0.106 -6.089,1.421c-10.604,-7.918 -168.047,-143.457 -217.435,-235.964c-27.377,-51.28 -25.904,-54.484 -45.638,-61.362c1.96,-3.132 3.92,-6.263 5.88,-9.395c3.111,-2.968 0.847,-4.059 3.722,-6.802c2.374,-2.266 3.105,-0.149 5.671,-2.162c9.78,-7.672 25.913,-37.171 72.084,-51.451c32.866,-10.165 28.766,-16.669 38.587,-26.017Z" style="fill:#f060cc;"/><path d="M1237.106,7614.76c56.077,146.533 48.098,149.116 106.411,294.489c-9.821,9.349 -5.72,15.852 -38.587,26.017c-46.171,14.28 -62.304,43.779 -72.084,51.451c-2.566,2.013 -3.297,-0.104 -5.671,2.162c-2.875,2.743 -0.611,3.834 -3.722,6.802c-10.909,-64.216 -65.114,-78.805 -120.347,-316.417l-5.125,-13.196c7.206,-1.493 7.894,0.377 22.51,-10.254c30.096,-21.891 34.806,-23.128 80.787,-29.519c16.334,-2.27 15.887,2.206 17.248,1.928c3.412,-0.697 5.278,-5.104 8.69,-5.802l9.889,-7.661Z" style="fill:#db47d7;"/><path d="M1537.923,1365.015c45.062,-46.755 347.766,-360.838 603.975,-542.274c135.38,-95.87 155.408,-101.201 162.758,-89.946c9.043,13.848 -32.728,35.304 -49.971,46.5c-293.08,190.302 -616.155,512.767 -787.23,715.481c-175.373,207.806 -159.34,259.416 -187.979,245.758c-65.289,-31.136 233.469,-348.948 258.447,-375.519Z" style="fill:#fff91c;"/><path d="M6224.814,1522.727c222.111,233.848 367.875,448.697 312.97,456.555c-25.43,3.64 -31.95,-52.341 -89.539,-133.085c-209.161,-293.262 -581.453,-663.432 -882.629,-864.526c-14.238,-9.506 -32.917,-20.836 -27.259,-31.205c12.192,-22.347 99.523,48.637 170.034,99.017c15.871,11.339 247.768,191.306 495.374,450.657c1.706,1.787 1.488,1.853 21.05,22.587Z" style="fill:#fff91c;"/><path d="M1711.352,1521.615c-146.964,188.69 -181.649,293.299 -209.338,265.961c-7.355,-7.262 -16.057,-15.853 53.411,-117.64c117.25,-171.799 121.31,-168.456 275.32,-351.59c119.709,-142.346 307.723,-315.372 335.914,-341.315c152.38,-140.232 175.22,-130.86 175.213,-114.132c-0.008,21.717 -249.822,177.462 -561.969,570.869c-34.886,43.967 -34.148,43.941 -68.55,87.847Z" style="fill:#fffc1c;"/><path d="M6243.287,1861.146c22.976,35.776 112.492,162.802 67.468,163.55c-22.054,0.367 -75.449,-107.471 -140.242,-196.105c-110.25,-150.818 -249.399,-370.813 -606.702,-687.745c-31.874,-28.273 -73.739,-54.898 -61.872,-69.769c8.299,-10.399 26.216,-3.757 121.52,79.806c158.55,139.019 384.92,406.391 416.368,443.534c115.912,136.906 201.828,264.422 203.46,266.73Z" style="fill:#fffb1c;"/><path d="M3976.978,3444.402c3.955,-12.522 2.989,-34.704 48.301,-37.399c58.123,-3.457 57.842,-4.417 114.217,-19.978c44.96,-12.41 53.033,0.167 72.931,84.088c9.792,41.298 21.374,67.472 -14.236,54.841c-70.072,-24.855 -82.82,72.389 -42.529,75.594c24.19,1.925 7.418,-31.9 13.275,-39.233c18.612,-23.305 83.704,56.91 -12.794,67.023c-115.74,12.131 -148.596,-9.768 -172.671,-64.298c-17.884,-40.506 21.459,-31.755 24.651,-31.825c71.602,-1.564 57.3,-97.082 15.854,-84.073c-21.633,6.79 15.379,51.543 -15.888,46.58c-29.614,-4.7 -30.956,-46.522 -31.11,-51.321Z" style="fill:#f6cc95;"/><path d="M3114.572,3216.773c16.586,21.576 69.213,67.139 43.358,192.78c-1.946,9.454 -23.085,112.177 -71.691,97.049c-53.231,-16.567 -124.705,-369.692 -60.171,-369.44c4.662,0.018 17.074,0.067 48.575,32.193c8.395,8.562 7.89,8.697 39.93,47.418Z" style="fill:#f984b4;"/><path d="M1063.546,6789.248c59.499,-6.389 77.278,36.825 136.41,55.223c15.092,4.696 22.087,15.274 22.466,15.536c-24.34,91.617 -30.508,120.463 -45.466,216.639l-10.569,-2.698l-8.69,-0.021c-24.326,-4.793 -24.378,-4.323 -26.464,-4.855c-26.741,-6.822 -26.486,0.124 -43.753,3.701c-17.139,3.55 -18.709,-1.355 -58.375,18.452c-0.012,-38.393 6.74,-38.011 1.962,-76.046c-1.973,-15.704 5.612,-21.559 7.47,-60.008c1.703,-35.238 6.553,-34.482 8.776,-69.697c0.353,-5.595 1.309,-5.394 8.648,-69.542c0.252,-2.205 0.562,-1.977 7.585,-26.683Z" style="fill:#9b20d7;"/><path d="M1180.931,7337.576c27.412,206.298 34.571,217.927 56.175,277.185l-9.889,7.661c-3.412,0.697 -5.278,5.104 -8.69,5.802c-1.36,0.278 -0.914,-4.198 -17.248,-1.928c-45.981,6.391 -50.691,7.628 -80.787,29.519c-14.616,10.631 -15.305,8.761 -22.51,10.254c-4.061,-21.757 -1.229,-21.848 -7.306,-42.856c-1.446,-4.997 -13.728,-79.941 -25.739,-130.256c-5.207,-21.815 -1.46,-22.167 -7.71,-43.974c-1.159,-4.045 1.792,-4.346 -9.084,-51.808c-0.291,-1.269 -2.235,-23.933 -2.414,-26.015l0.345,-8.134c14.012,-3.315 78.997,-38.156 129.002,-29.059c0,-0 5.854,3.609 5.854,3.609Z" style="fill:#c438d7;"/><path d="M2412.786,6650.985c-6.54,72.857 -2.159,72.722 1.301,121.495c4.057,57.208 -116.952,29.158 -140.593,5.047c-19.62,-20.01 -66.322,-145.933 7.882,-192.228c105.093,-65.567 151.59,-98.882 145.161,-38.939c-2.278,21.243 -12.6,96.262 -13.751,104.625Z" style="fill:#49167b;"/><path d="M4043.071,2031.491c-15.5,1.159 -149.271,16.933 -114.792,-56.871c13.723,-29.376 80.111,-74.451 121.667,-105.639c111.195,-83.453 120.691,-73.218 127.798,-64.249c8.208,10.358 11.429,156.836 -32.129,195.014c-28.986,25.406 -93.988,31.008 -102.544,31.745Z" style="fill:#fc86b4;"/><path d="M1176.955,7076.645c-7.531,62.428 -11.552,84.773 3.975,260.93l-5.854,-3.609c-50.005,-9.097 -114.99,25.744 -129.002,29.059c3.385,-85.012 -7.652,-108.661 -7.653,-112.874c-0.008,-40.768 1.272,-79.859 -4.32,-103.625c-0.789,-3.354 -6.314,-26.832 -2.318,-43.013c0.639,-2.589 3.276,-4.923 2.708,-7.529c-0.51,-2.341 -4.877,-2.419 -5.387,-4.76c39.666,-19.807 41.236,-14.902 58.375,-18.452c17.267,-3.576 17.012,-10.523 43.753,-3.701c2.086,0.532 2.138,0.061 26.464,4.855l8.69,0.021l10.569,2.698Z" style="fill:#ae2bd8;"/><path d="M1543.301,8211.843c36.487,37.348 36.975,36.422 75.074,72.406c99.649,94.117 102.886,89.972 218.47,163.028l-10.59,10.887l-6.352,9.565c-1.444,1.68 2.457,5.586 1.013,7.266c-1.858,2.163 -2.912,3.193 -4.147,5.763c-1.74,3.618 -0.475,6.374 -2.267,9.967c-1.187,2.38 -3.132,0.132 -6.931,15.235c-0.98,3.896 -5.99,8.946 -6.535,15.528c-5.74,2.246 -5.326,-2.246 -11.066,-0c-0.864,-14.415 -4.534,-10.187 -17.464,-16.844c-88.007,-45.308 -83.889,-52.159 -137.217,-80.673c-16.163,-8.643 -129.532,-95.927 -138.718,-104.793c-3.5,-3.378 -5.134,-8.843 -9.417,-11.148c-2.529,-1.361 -5.953,2.876 -8.483,1.515l1.974,-7.141c1.617,-1.315 4.472,-0.106 6.089,-1.421c4.622,-3.76 52.176,-81.924 56.565,-89.139Z" style="fill:#f180b5;"/><path d="M1063.014,5002.671c59.031,-15.669 147.225,-45.403 131.203,6.148c-8.074,25.979 -89.392,138.811 -100.532,153.368c-43.932,57.407 -59.23,75.415 -74.947,63.165c-18.633,-14.523 -45.895,-127.576 -48.219,-139.775c-10.898,-57.194 12.394,-58.555 92.495,-82.905Z" style="fill:#fb86b4;"/><path d="M1184.831,3606.503c-49.134,-14.625 -53.428,-5.446 -60.817,-15.652c-17.421,-24.067 46.599,-15.414 75.509,-36.184c90.268,-64.853 43.171,-178.845 62.581,-197.439c34.792,-33.33 9.986,87.896 37.434,146.32c44.596,94.925 142.543,53.185 117.909,87.394c-4.648,6.455 -6.303,3.662 -34.019,8.335c-135.062,22.77 -83.954,198.566 -106.705,214.898c-32.129,23.064 -6.63,-91.435 -35.056,-151.553c-17.73,-37.496 -21.078,-35.555 -56.836,-56.118Z" style="fill:#fed87a;"/><path d="M6435.896,3748.717c7.74,-65.773 0.046,-110.819 14.201,-113.024c20.297,-3.163 16.617,45.417 17.384,69.004c5.856,180.061 132.609,135.12 134.708,157.795c1.986,21.456 -40.761,17.076 -47.332,18.671c-115.993,28.158 -78.054,210.775 -95.805,215.456c-34.719,9.155 -5.455,-97.409 -37.263,-156.242c-51.419,-95.106 -126.363,-41.666 -116.337,-78.041c8.691,-31.529 93.681,29.321 130.445,-113.618Z" style="fill:#ffd87b;"/><path d="M1360.326,4659.606c-2.177,-6.05 -22.294,-61.965 -22.661,-77.111c-1.457,-60.138 190.05,-63.085 221.064,-45.202c44.461,25.637 -85.608,152.165 -109.234,171.178c-61.344,49.368 -66.651,5.485 -89.169,-48.865Z" style="fill:#fc86b4;"/><path d="M633.028,7319.944c4.898,127.075 10.232,175.502 -65.291,152.866c-186.956,-56.034 -78.855,-127.338 -48.087,-164.904c51.972,-63.453 80.252,-127.909 101.888,-58.516c7.047,22.603 10.962,64.86 11.49,70.554Z" style="fill:#fd86b4;"/><path d="M1014.894,2184.3c15.204,155.69 135.09,102.008 125.879,138.89c-6.015,24.085 -119.136,-25.294 -127.077,156.417c-0.768,17.568 0.046,17.239 -0.886,34.816c-2.173,40.959 -21.013,20.301 -21.845,18.185c-7.888,-20.069 14.933,-181.375 -94.326,-198.553c-2.564,-0.403 -43.233,1.947 -35.187,-20.205c9.669,-26.621 61.099,27.647 112.125,-78.514c24.887,-51.778 2.774,-145.055 27.055,-135.165c13.975,5.693 11.534,18.459 14.261,84.128Z" style="fill:#ffe518;"/><path d="M6772.642,2556.508c34.606,29.997 38.209,23.322 78.059,32.862c18.931,4.532 18.676,19.613 0.403,24.187c-28.15,7.046 -106.902,-4.965 -113.982,143.958c-0.966,20.321 3.006,67.198 -18.332,61.831c-23.405,-5.887 25.958,-186.544 -103.467,-202.763c-42.274,-5.297 -33.127,-18.823 -31.304,-21.239c18.687,-24.762 118.669,28.885 126.027,-159.407c0.409,-10.465 -3.743,-59.481 18.662,-53.482c26.474,7.089 -23.403,87.117 43.934,174.053Z" style="fill:#ffe418;"/><path d="M1514,6207.45c-59.059,79.632 -8.984,172.734 -43.065,170.151c-31.587,-2.394 21.455,-189.321 -104.348,-206.696c-3.225,-0.445 -37.659,-5.201 -37.535,-15.716c0.351,-29.96 119.773,24.45 128.895,-147.894c0.056,-1.059 -5.397,-87.723 19.851,-67.614c13.495,10.748 -13.797,170.826 79.734,197.936c4.426,1.283 68.005,4.424 51.271,25.711c-12.974,16.505 -42.457,-13.28 -94.803,44.122Z" style="fill:#f5d592;"/><path d="M4689.737,3426.29c-3.499,-60.841 -15.359,-179.252 66.73,-105.173c70.558,63.674 111.45,73.426 114.693,96.32c4.419,31.193 -103.015,108.013 -125.451,120.276c-37.642,20.575 -45.017,-22.794 -55.972,-111.424Z" style="fill:#fd86b4;"/><path d="M3646.19,3270.479c6.191,-39.555 16.072,-96.622 79.912,-177.162c73.09,-92.209 125.013,-20.424 92.417,55.934c-24.513,57.422 -99.012,133.579 -109.115,143.907c-73.349,74.982 -63.218,-18.991 -63.213,-22.68Z" style="fill:#f9dd8d;"/><path d="M3952.311,3200.955c0.723,-15.012 -4.562,-36.899 37.747,-46.537c20.599,-4.693 87.529,-8.183 113.14,-3.558c39.079,7.056 59.304,67.787 50.798,73.544c-7.172,4.855 -56.311,-29.642 -83.473,12.017c-22.995,35.269 35.347,77.903 30.485,34.005c-4.591,-41.459 26.04,-13.474 28.631,-8.873c24.002,42.633 -45.618,58.926 -70.28,67.005c-80.596,26.402 -104.276,-106.213 -107.047,-127.602Z" style="fill:#f5d98d;"/><path d="M514.132,6406.295c12.373,-6.2 12.211,-5.637 24.587,-11.766c61.005,-30.213 101.08,-63.828 107.415,-4.707c3.398,31.707 -32.552,166.446 -38.157,181.735c-15.002,40.921 -34.491,12.833 -125.649,-96.727c-37.091,-44.579 0.864,-52.115 31.804,-68.535Z" style="fill:#fd86b4;"/><path d="M827.791,8133.224c-9.36,-1.257 -88.56,-11.892 -110.286,-42.09c-16.409,-22.807 35.66,-144.634 58.329,-152.15c26.066,-8.643 87.282,110.699 100.87,146.524c22.705,59.861 -40.008,47.896 -48.912,47.716Z" style="fill:#fa85b4;"/><path d="M1836.845,8447.276c29.497,20.048 26.911,25.37 294.939,138.949c-2.136,4.572 -8.29,6.406 -10.426,10.979c-0.945,2.022 2.998,2.629 -4.36,27.558c-1.497,-0.315 -18.715,-3.938 -18.715,-3.938c-24.649,-11.667 -65.705,-13.739 -159.679,-45.389c-70.046,-23.591 -68.389,-27.279 -137.568,-53.947c0.76,-2.249 9.494,-28.118 9.494,-28.118c0.788,-1.32 3.364,-0.566 4.233,-1.835c4.807,-7.019 -0.085,-8.439 4.218,-15.575c2.861,-4.745 4.378,-2.227 4.424,-2.637c0.424,-3.779 -3.899,-2.041 -3.501,-5.594l6.352,-9.565c0,0 10.59,-10.887 10.59,-10.887Z" style="fill:#f091aa;"/><path d="M839.913,5686.963c-27.073,98.645 -40.596,158.197 -89.95,94.12c-69.141,-89.767 -49.185,-112.025 -42.41,-119.583c10.48,-11.69 56.553,-46.92 111.692,-60.044c56.538,-13.457 23.993,72.942 20.668,85.507Z" style="fill:#fb86b4;"/><path d="M5858.449,3787.037c23.518,5.615 28.572,0.958 29.989,12.448c3.429,27.807 -74.317,-7.783 -95.721,79.8c-4.781,19.562 0.115,113.868 -22.874,89.55c-12.115,-12.816 10.122,-141.039 -66.879,-152.95c-2.749,-0.425 -31.575,-4.884 -33.836,-8.004c-23.518,-32.443 90.297,9.417 94.119,-111.882c0.638,-20.257 -3.842,-67.731 18.467,-63.023c22.131,4.671 -26.678,134.129 76.736,154.06Z" style="fill:#ffa3cd;"/><path d="M1865.953,3434.503c7.203,-75.614 6.463,-81.873 13.765,-84.255c33.294,-10.863 -19.869,141.416 85.818,156.129c47.185,6.569 11.195,24.44 9.113,24.805c-5.581,0.978 -11.268,1.274 -16.844,2.282c-83.888,15.175 -55.909,145.005 -70.231,153.749c-29.015,17.713 -5.695,-66.395 -32.263,-114.067c-25.233,-45.278 -44.205,-39.822 -71.916,-42.324c-22.944,-2.072 -22.391,-21.994 0.327,-23.985c52.694,-4.618 63.554,-9.35 82.23,-72.335Z" style="fill:#fea4cf;"/><path d="M1931.013,8878.347c13.23,1.796 152.308,20.673 148.973,75.219c-0.911,14.904 -31.811,115.772 -86.135,75.47c-6.198,-4.598 -142.098,-135.307 -81.212,-149.292c0,-0 16.905,-1.285 18.375,-1.397Z" style="fill:#fb85b3;"/><path d="M3251.127,4129.59c-0.252,0.195 -62.901,34.658 -116.336,137.828c-39.733,76.716 -76.684,241.285 -85.282,375.574c-2.814,43.952 -2.608,43.498 -4.908,87.304c-0.663,-3.469 -5.134,-5.4 -5.797,-8.869c-0.524,-2.74 1.419,-2.633 -1.25,-34.851c-1.175,-14.188 -3.039,-13.559 -11.404,-34.656c1.868,-31.005 1.663,-30.565 4.43,-61.076c3.607,-39.788 33.969,-374.678 184.882,-463.9c30.975,-18.313 30.252,-0.907 35.667,2.646Z" style="fill:#e6c393;"/><path d="M5359.196,4043.238c-11.189,-84.741 -69.011,-55.64 -79.766,-71.449c-12.373,-18.187 35.711,-17.381 48.184,-25.877c44.094,-30.034 31.604,-102.553 33.165,-111.631c2.196,-12.77 20.871,-20.176 23.567,9.018c6.81,73.754 -4.479,93.259 66.953,111.852c2.683,0.698 30.84,16.748 -10.234,23.321c-79.877,12.782 -46.8,111.366 -60.333,125.713c-23.521,24.935 -21.515,-60.335 -21.536,-60.946Z" style="fill:#ffa1ca;"/><path d="M5725.155,4165.78c16.91,92.303 83.328,49.026 80.842,77.546c-1.359,15.595 -73.921,-2.411 -80.379,77.932c-0.591,7.354 0.305,81.19 -21.609,59.983c-11.567,-11.194 11.806,-84.994 -37.076,-118.951c-8.516,-5.916 -58.822,-8.508 -42.603,-27.544c8.509,-9.987 68.84,9.03 74.773,-78.539c0.024,-0.357 -1.602,-54.985 11.31,-55.963c16.636,-1.26 12.221,27.995 14.74,65.536Z" style="fill:#fea2cb;"/><path d="M1528.432,3391.392c-1.354,34.427 -0.527,69.324 -14.386,69.024c-24.439,-0.529 11.865,-119.577 -60.51,-131.122c-2.135,-0.341 -23.731,-3.785 -26.025,-7.29c-16.85,-25.742 55.822,-3.871 72.244,-68.288c6.34,-24.868 -2.112,-103.23 23.478,-79.565c4.333,4.007 -4.674,120.286 52.362,128.111c24.543,3.367 25.402,1.251 30.243,6.261c19.609,20.292 -34.635,14.335 -54.638,33.659c-15.42,14.897 -21.862,44.968 -22.77,49.209Z" style="fill:#ffd77a;"/><path d="M1897.72,3979.959c-18.529,-6.867 -40.639,-9.398 -42.924,-15.463c-5.463,-14.497 30.712,-16.173 32.759,-16.767c66.264,-19.253 37.167,-121.555 52.952,-128.746c27.71,-12.624 11.075,59.856 26.039,93.962c16.645,37.939 58.981,37.92 59.257,38.001c17.599,5.219 18.114,17.274 0.262,21.433c-5.41,1.26 -10.929,2.014 -16.336,3.286c-90.998,21.402 -25.194,152.81 -68.567,126.726c-26.437,-15.899 25.649,-74.305 -43.442,-122.432Z" style="fill:#fe9fc9;"/><path d="M6399.948,3095.014c20.267,21.309 20.791,21.687 49.951,27.577c20.498,4.141 20.265,20.099 -0.683,23.152c-63.801,9.299 -60.161,39.977 -63.622,106.769c-1.964,37.91 -20.361,22.402 -21.906,17.367c-6.084,-19.818 12.781,-110.184 -52.499,-122.486c-2.588,-0.488 -42.709,-8.048 -24.228,-22.289c14.606,-11.255 74.722,14.382 74.982,-98.256c0.006,-2.695 0.07,-30.441 2.638,-33.587c20.151,-24.691 21.684,46.721 21.78,51.169c0.668,31.091 8.129,39.222 13.588,50.584Z" style="fill:#fed479;"/><path d="M1358.302,5516.188c97.157,-25.692 24.195,-137.362 69.884,-128.267c10.395,2.069 8.328,51.311 8.428,54.725c2.934,100.07 103.018,64.01 76.632,94.967c-0.97,1.138 -1.21,0.78 -34.753,6.932c-55.827,10.239 -33.207,125.256 -52.307,128.876c-19.445,3.685 -14.764,-55.985 -14.781,-57.019c-1.503,-91.717 -78.968,-64.259 -78.667,-86.758c0.159,-11.864 24.773,-13.284 25.564,-13.456Z" style="fill:#efc999;"/><path d="M1366.776,8631.395c45.469,42.756 61.686,71.053 26.479,81.777c-95.162,28.986 -111.375,-11.272 -114.859,-19.922c-15.697,-38.976 -41.864,-175.749 70.056,-78.179c2.185,1.905 1.683,2.08 4.044,4.07c7.214,6.083 6.94,5.955 14.28,12.254Z" style="fill:#fb85b3;"/><path d="M6257.722,3615.444c-61.879,39.948 -25.655,76.231 -39.935,116.85c-3.564,10.137 -20.107,13.278 -21.254,-9.993c-3.754,-76.101 6.521,-95.97 -67.401,-114.906c-15.576,-3.99 -11.625,-17.268 0.418,-21.211c39.342,-12.881 48.139,-6.742 61.314,-45.987c10.373,-30.896 -2.319,-101.803 22.465,-84.878c15.821,10.805 -13.028,116.355 62.296,129.635c2.018,0.356 22.419,3.953 24.322,8.044c5.848,12.573 -28.633,18.969 -42.224,22.445Z" style="fill:#fed478;"/><path d="M1171.87,1889.444c27.951,73.846 74.801,32.893 75.888,59.578c0.894,21.95 -77.804,-5.806 -81.054,95.906c-0.136,4.242 2.893,43.832 -9.477,49.737c-32.493,15.51 19.123,-117.09 -68.187,-131.86c-40.548,-6.859 -14.072,-23.307 -10.327,-24.161c106.909,-24.378 43.401,-120.902 72.35,-133.027c18.443,-7.725 11.761,31.983 20.807,83.828Z" style="fill:#fee118;"/><path d="M6586.633,2176.117c27.115,59.97 61.007,34.646 71.921,51.249c18.773,28.557 -69.778,-11.41 -76.557,87.13c-0.314,4.562 2.286,74.075 -18.797,60.236c-11.132,-7.307 8.966,-114.553 -52.886,-128.476c-2.7,-0.608 -30.858,-6.946 -32.769,-11.081c-13.369,-28.92 51.901,10.572 75.937,-68.83c8.784,-29.018 -3.816,-85.81 18.261,-78.315c13.044,4.428 2.486,31.473 14.891,88.088Z" style="fill:#ffe418;"/><path d="M1362.89,2766.538c11.668,97.269 66.808,59.841 77.255,80.454c10.319,20.361 -33.643,8.702 -55.726,32.855c-39.311,42.996 -8.572,118.534 -36.425,114.985c-22.608,-2.881 13.709,-115.054 -60.772,-130.198c-2.312,-0.47 -55.627,-11.311 -18.261,-23.156c5.048,-1.6 66.558,-1.349 68.651,-75.518c0.273,-9.684 -2.538,-57.139 11.663,-57.991c14.401,-0.864 11.548,25.269 13.614,58.57Z" style="fill:#ffd87a;"/><path d="M2247.686,3783.935c-4.243,29.893 -3.37,29.681 -4.74,59.697c-1.249,27.37 -17.157,18.977 -19.763,10.901c-7.771,-24.082 9.869,-111.124 -58.024,-121.037c-37.35,-5.453 -19.828,-20.492 -17.799,-21.411c4.098,-1.857 67.66,0.13 72.463,-76.672c0.616,-9.849 -2.103,-61.244 14.289,-57.579c30.807,6.888 -29.043,107.857 69.542,130.692c36.557,8.468 11.507,21.392 9.682,21.995c-30.196,9.965 -44.403,-2.76 -65.65,53.414Z" style="fill:#fea5cf;"/><path d="M3956.647,3075.454c-83.137,-26.52 -96.916,-79.196 -52.771,-91.601c84.916,-23.862 187.86,41.001 135.996,82.501c-19.703,15.765 -76.564,9.8 -83.225,9.101Z" style="fill:#f8dc8d;"/><path d="M3095.834,5012.085c89.033,10.829 43.955,107.879 38.877,114.714c-57.517,77.423 -172.781,-83.832 -38.877,-114.714Z" style="fill:#170953;"/><path d="M3762.252,4295.286c-0.415,2.45 -6.694,126.154 -76.425,107.205c-86.617,-23.538 88.282,-230.798 79.356,-132.909c-0.783,8.588 -2.148,17.116 -2.931,25.705Z" style="fill:#601099;"/><path d="M2721.86,8976.9c8.411,0.32 75.617,2.874 104.739,9.949c51.635,12.544 -17.912,70.699 -28.002,77.14c-39.142,24.986 -113.426,-55.253 -114.299,-66.75c-1.706,-22.477 36.559,-20.268 37.561,-20.339Z" style="fill:#fb85b4;"/><path d="M2583.675,3618.229c10.801,-37.215 2.022,-38.359 8.492,-69.743c2.642,-12.815 20.723,-20.201 21.634,8.743c0.274,8.704 0.354,17.414 0.65,26.118c2.255,66.215 44.172,59.344 54.31,62.545c2.25,0.71 20.01,16.79 -8.336,21.538c-50.899,8.526 -42.662,39.868 -47.7,90.392c-2.021,20.268 -20.098,19.6 -21.19,-0.972c-0.459,-8.657 -0.267,-17.343 -0.789,-25.997c-4.713,-78.132 -52.554,-56.753 -61.323,-68.663c-17.862,-24.258 25.17,-2.67 54.253,-43.961Z" style="fill:#ffa1cb;"/><path d="M5018.902,3940.634c-10.405,39.33 0.619,91.222 -20.329,77.139c-11.569,-7.777 4.304,-93.091 -43.335,-104.477c-18.413,-4.401 -28.637,1.437 -25.499,-17.201c2.983,-17.718 58.595,7.244 61.659,-69.632c0.142,-3.551 1.65,-41.398 7.144,-43.849c29.566,-13.19 -4.845,90.486 52.774,103.263c19.506,4.325 23.843,-0.286 25.544,10.025c2.571,15.588 -28.546,17.59 -33.458,19.951c-16.226,7.799 -14.905,9.536 -24.5,24.779Z" style="fill:#ffa4cd;"/><path d="M1009.639,6043.212c2.525,0.456 44.035,7.948 23.818,21.477c-11.393,7.624 -56.917,-5.089 -59.279,64.458c-0.119,3.51 -1.378,40.565 -7.831,43.193c-30.484,12.413 4.885,-91.303 -52.222,-103.071c-2.07,-0.427 -23.153,-4.771 -24.451,-10.011c-6.261,-25.265 56.19,4.321 59.859,-69.026c0.21,-4.189 2.428,-48.534 8.588,-51.714c20.225,-10.443 15.846,50.611 15.968,51.856c4.445,45.548 32.461,51.095 35.551,52.837Z" style="fill:#f0cc97;"/><path d="M4630.575,2653.433c0.396,-24.746 0.108,-24.611 0.428,-26.725c7.812,-51.625 121.614,-42.191 114.857,0.29c-2.332,14.659 -98.917,154.869 -115.285,26.435Z" style="fill:#fd86b4;"/><path d="M2944.063,5103.708c-17.469,81.01 -94.886,58.56 -100.826,17.525c-10.558,-72.943 85.511,-116.766 100.826,-17.525Z" style="fill:#160953;"/><path d="M4499.733,2193.259c-0.406,-3.306 -1.289,-6.541 -1.695,-9.846c-10.996,-89.554 72.859,-80.725 75.711,-79.747c8.997,3.086 33.603,11.528 -24.368,116.371c-37.877,68.502 -48.563,-22.152 -49.648,-26.778Z" style="fill:#fa85b4;"/><path d="M3643.254,3443.869c43.687,73.719 13.818,139.368 -34.594,120.959c-32.179,-12.236 -21.198,-75.924 -18.563,-86.253c11.481,-45.007 23.22,-70.394 53.157,-34.706Z" style="fill:#f6da8d;"/><path d="M1716.553,7260.108c24.229,-46.054 66.272,-72.107 93.772,-64.984c83.417,21.608 -128.804,179.865 -93.772,64.984Z" style="fill:#e449ee;"/><path d="M3808.389,3956.994c84.417,-66.383 52.319,116.075 -34.215,84.132c-50.438,-18.618 17.472,-70.309 34.215,-84.132Z" style="fill:#601099;"/><path d="M5162.817,7106.512c-3.633,-1.113 -37.761,-11.574 -36.549,-30.331c3.615,-55.961 161.572,41.521 172.964,55.118c0.209,0.249 15.812,34.696 -31.28,14.987c-39.877,-16.689 -37.32,-22.816 -105.135,-39.774Z" style="fill:#e048eb;"/><path d="M3564.836,8854.728c6.101,0.172 61.854,1.74 74.787,15.071c44.002,45.357 -146.647,44.98 -124.135,-1.5c5.148,-10.628 45.262,-13.299 49.348,-13.571Z" style="fill:#fa85b3;"/><path d="M2585.864,7320.878c0.125,-0.193 6.934,-22.547 31.843,-19.025c16.794,2.374 36.202,17.303 39.917,21.23c47.885,50.631 -86.697,88.928 -71.759,-2.205Z" style="fill:#e449ee;"/><path d="M3387.516,4256.517c-75.822,-24.162 -98.71,18.885 -153.556,36.58c-13.209,4.262 -13.797,2.31 -24.651,-6.587c3.059,-1.717 2.28,-7.352 5.339,-9.069c7.912,-4.441 9.671,3.083 17.286,-2.387c9.196,-6.606 83.491,-59.98 132.931,-48.591c1.49,0.343 14.69,3.384 16.995,8.757c1.225,2.854 -2.248,6.691 -0.564,9.301c2.174,3.371 4.807,-3.434 6.684,0.186c2.897,5.586 -3.398,6.151 -0.464,11.809Z" style="fill:#e0b798;"/><path d="M3277.477,4328.148c2.196,2.447 7.626,-3.341 9.822,-0.895c2.592,2.888 -0.594,7.783 -0.178,11.642c2.869,26.607 10.657,38.155 12.576,40.999c14.533,21.547 2.045,24.673 -2.356,29.988c-9.254,11.175 1.239,15.839 -8.805,26.165c-13.708,14.092 -15.149,0.997 -22.495,-17.118c-7.168,-17.679 -27.926,-21.243 -8.854,-39.425c18.734,-17.86 4.487,-39.307 4.36,-39.701c5.356,-4.84 5.359,-4.353 15.931,-11.653Z" style="fill:#eec694;"/><path d="M3913.686,7266.475c35.382,43.657 -6.309,57.525 -34.457,33.984c-41.228,-34.48 -10.614,-72.031 21.682,-46.505c1.123,0.887 0.946,0.928 12.775,12.521Z" style="fill:#e249ed;"/><path d="M4682.316,3063.752c-21.468,-48.474 17.801,-69.422 44.437,-43.141c18.695,18.446 -4.387,85.835 -44.437,43.141Z" style="fill:#f984b3;"/><path d="M4372.7,8654.536c58.23,9.23 9.325,41.111 -16.59,36.435c-3.152,-0.569 -40.706,-19.821 16.59,-36.435Z" style="fill:#f985b3;"/><path d="M4771.207,7261.198c-1.916,-2.119 -22.222,-24.569 -5.938,-35.211c24.851,-16.242 54.069,58.542 5.938,35.211Z" style="fill:#dc47e8;fill-opacity:1;"/><path d="M3026.149,4651.92c8.366,21.097 10.229,20.468 11.404,34.656c2.669,32.218 0.726,32.111 1.25,34.851c0.663,3.469 5.134,5.4 5.797,8.869l-3.459,25.716c-19.368,-31.851 -13.837,-35.732 -14.993,-104.091Z" style="fill:#b775b1;"/><path d="M3444.219,7295.077c-18.096,3.786 -26.847,8.453 -25.927,-9.999c1.159,-23.258 49.858,-24.33 25.927,9.999Z" style="fill:#d845e5;"/><path d="M931.181,7104.609c3.718,-1.726 1.698,-8.946 26.629,-8.414c22.067,0.47 23.262,5.927 26.292,7.068c-18.928,5.519 -19.026,4.816 -52.92,1.346Z" style="fill:#a628e3;"/><path d="M4278.685,7090.112c-6.476,-6.095 -10.768,-4.962 -7.701,-13.296c8.403,-22.83 35.525,4.882 14.402,13.733c-2.065,0.865 -4.636,-1.302 -6.701,-0.437Z" style="fill:#be3ed2;"/><path d="M5041.54,8218.132c-1.74,-2.15 -5.564,-1.788 -7.304,-3.938c-6.382,-7.886 0.018,-14.275 0.876,-15.132c10.575,-10.557 26.946,8.028 16.471,16.66c-2.657,2.189 -7.386,0.221 -10.043,2.411Z" style="fill:#c2679c;fill-opacity:1;"/><path d="M2503.564,8779.532c1.165,26.231 1.023,48.14 0.996,52.326c-0.663,-1.972 -5.28,-4.833 -5.88,-17.492c-0.599,-12.628 0.655,-12.358 4.884,-34.835Z" style="fill:#f2c197;"/></g></svg>